<?xml version="1.0" standalone="no"?>
<!DOCTYPE svg PUBLIC "-//W3C//DTD SVG 1.1//EN" "http://www.w3.org/Graphics/SVG/1.1/DTD/svg11.dtd" >
<!--
2019-10-21: Created with FontForge (http://fontforge.org)/
-->
<svg xmlns="http://www.w3.org/2000/svg" xmlns:xlink="http://www.w3.org/1999/xlink" version="1.1">
<metadata>
Created by FontForge 20170731 at Mon Oct 21 10:44:33 2019
 By Lionel,,,
orioniconlibrary.com
</metadata>
<defs>
<font id="orion-font" horiz-adv-x="496" >
  <font-face 
    font-family="orion-font"
    font-weight="400"
    font-stretch="normal"
    units-per-em="512"
    panose-1="2 0 5 3 0 0 0 0 0 0"
    ascent="448"
    descent="-64"
    bbox="-0.522542 -58 496.764 440.62"
    underline-thickness="25.6"
    underline-position="-51.2"
    unicode-range="U+0020-F8A7"
  />
    <missing-glyph />
    <glyph glyph-name="space" unicode=" " horiz-adv-x="200" 
 />
    <glyph glyph-name="paper-stack-1" unicode="&#xf87d;" 
d="M124 359c66 31 122 57 124 57c5 0 245 -113 247 -117c2 -2 2 -4 0 -6c-2 -3 -233 -113 -244 -116c-5 -1 -247 111 -250 116c-1 2 -1 4 0 6s57 29 123 60zM137 348c-59 -28 -107 -51 -107 -52c0 -2 215 -102 218 -102s218 100 218 102s-214 102 -218 102
c-1 0 -52 -22 -111 -50zM2 238c1 1 4 2 5 2s56 -25 121 -55s119 -55 120 -55s55 25 120 55s120 55 122 55c5 -1 8 -7 5 -11c-2 -3 -233 -113 -244 -116c-3 -1 -42 16 -125 55c-66 31 -123 57 -124 58c-3 3 -3 9 0 12zM2 174c1 1 4 2 5 2s56 -25 121 -55s119 -55 120 -55
s55 25 120 55s120 55 122 55c5 -1 8 -7 5 -11c-2 -3 -233 -113 -244 -116c-3 -1 -42 16 -125 55c-66 31 -123 57 -124 58c-3 3 -3 9 0 12zM2 110c-3 -3 -3 -9 0 -12c1 -1 58 -27 124 -58c83 -39 122 -56 125 -55c11 3 242 113 244 116c3 4 0 10 -5 11c-2 0 -57 -25 -122 -55
s-119 -55 -120 -55s-55 25 -120 55s-120 55 -121 55s-4 -1 -5 -2z" />
    <glyph glyph-name="sad-emoji-1" unicode="&#xf88e;" 
d="M211 437c47 7 98 0 142 -21c28 -13 48 -27 70 -49s36 -42 49 -70c45 -94 25 -206 -49 -280c-22 -22 -42 -36 -70 -49c-79 -38 -173 -30 -247 20c-20 14 -48 43 -62 63c-13 19 -28 51 -34 71c-25 89 -1 181 63 245c22 22 41 36 69 49c22 11 44 17 69 21zM216 422
c-32 -4 -79 -23 -105 -43c-91 -69 -120 -187 -72 -287c12 -25 25 -44 44 -63c22 -22 37 -31 62 -44c45 -22 89 -29 137 -22c74 11 138 57 172 123c46 90 29 198 -43 270c-51 51 -122 75 -195 66zM159 262c7 3 19 1 26 -6c5 -5 6 -8 6 -16c0 -9 -1 -10 -7 -16s-7 -7 -16 -7
s-11 1 -17 7s-6 8 -6 16c0 10 5 18 14 22zM319 262c7 3 19 1 26 -6c5 -5 6 -8 6 -16c0 -9 -1 -10 -7 -16s-7 -7 -16 -7s-11 1 -17 7s-6 8 -6 16c0 10 5 18 14 22zM162 245c-5 -6 2 -16 9 -12s5 15 -3 15c-2 0 -5 -1 -6 -3zM322 245c-5 -6 2 -16 9 -12s5 15 -3 15
c-2 0 -5 -1 -6 -3zM217 117c-26 -6 -55 -20 -76 -39c-10 -9 -13 -16 -9 -21s7 -3 19 8c30 28 66 40 106 38c33 -2 62 -13 88 -37c7 -6 13 -12 14 -12c3 0 9 5 9 8c0 4 -18 21 -31 30c-33 24 -81 34 -120 25z" />
    <glyph glyph-name="digital-camera-1" unicode="&#xf855;" horiz-adv-x="494" 
d="M233 344l26 32h68h68l26 -32l26 -32h14c15 -1 21 -5 29 -15c4 -5 4 -7 4 -137s0 -132 -4 -137c-2 -3 -7 -8 -10 -10c-6 -4 -6 -4 -233 -4s-227 0 -233 4c-3 2 -8 7 -10 10c-4 5 -4 7 -4 137s0 132 4 137c9 11 14 14 33 15h18v22c0 14 0 22 2 24c3 3 81 3 84 0
c2 -2 2 -10 2 -24v-22h32h31zM245 334c-12 -14 -23 -29 -26 -32l-6 -6h-94h-94l-5 -5l-5 -5v-126v-126l5 -5l5 -5h222h222l5 5l5 5v126v126l-5 5c-4 4 -7 5 -19 5c-17 0 -13 -3 -46 38l-21 26h-61h-61zM71 328v-16h28h28v16v16h-28h-28v-16zM301 293c41 9 80 -3 110 -33
c48 -48 48 -120 0 -168c-30 -30 -68 -42 -109 -33c-54 11 -95 62 -95 117s41 106 94 117zM302 277c-36 -9 -67 -40 -76 -77c-18 -75 50 -143 125 -125c37 9 68 40 77 77c8 35 -2 71 -28 97s-63 37 -98 28zM73 262c10 3 27 1 35 -4c4 -2 9 -7 12 -12c5 -7 6 -11 6 -22
s-1 -15 -6 -22c-9 -13 -17 -17 -33 -17c-11 0 -15 1 -22 6c-15 10 -21 27 -16 45c3 10 14 23 24 26zM78 246c-9 -4 -14 -12 -14 -22c0 -8 1 -10 7 -16s7 -7 16 -7s10 1 16 7s7 7 7 16c0 8 -1 11 -6 16c-7 7 -19 9 -26 6zM308 229c5 2 14 3 18 3c30 1 57 -26 57 -56
s-26 -56 -56 -56s-56 26 -56 56c0 4 1 12 3 18c4 14 20 31 34 35zM313 214c-10 -3 -21 -16 -24 -26c-5 -18 2 -37 17 -46c11 -7 31 -7 42 0c12 8 18 18 18 34c0 15 -5 25 -17 33c-9 6 -26 8 -36 5z" />
    <glyph glyph-name="tablet-1" unicode="&#xf89f;" horiz-adv-x="368" 
d="M12 437c5 3 21 3 172 3c183 0 173 1 181 -12c3 -5 3 -26 3 -236s0 -231 -3 -236c-8 -13 2 -12 -181 -12s-173 -1 -181 12c-3 5 -3 26 -3 236c0 253 -1 237 12 245zM18 422c-2 -2 -2 -10 -2 -24v-22h168h168v22c0 14 0 22 -2 24c-3 3 -329 3 -332 0zM16 208v-152h168h168
v152v152h-168h-168v-152zM58 318c3 3 57 3 60 0s3 -57 0 -60s-57 -3 -60 0s-3 57 0 60zM154 318c3 3 57 3 60 0s3 -57 0 -60s-57 -3 -60 0s-3 57 0 60zM250 318c3 3 57 3 60 0s3 -57 0 -60s-57 -3 -60 0c-2 2 -2 12 -2 30s0 28 2 30zM72 288v-16h16h16v16v16h-16h-16v-16z
M168 288v-16h16h16v16v16h-16h-16v-16zM264 288v-16h16h16v16v16h-16h-16v-16zM58 222c3 3 57 3 60 0s3 -57 0 -60s-57 -3 -60 0s-3 57 0 60zM154 222c3 3 57 3 60 0s3 -57 0 -60s-57 -3 -60 0s-3 57 0 60zM72 192v-16h16h16v16v16h-16h-16v-16zM168 192v-16h16h16v16v16
h-16h-16v-16zM16 2c0 -27 0 -38 2 -40c3 -3 329 -3 332 0c2 2 2 13 2 40v38h-168h-168v-38zM172 21c15 9 36 -3 36 -21s-21 -30 -36 -21c-16 9 -16 32 0 42zM178 5c-5 -6 3 -16 10 -12s4 15 -4 15c-2 0 -5 -1 -6 -3z" />
    <glyph glyph-name="umbrella-1" unicode="&#xf8a2;" 
d="M242 438c1 1 4 2 6 2c6 0 8 -4 8 -18v-13l14 -2c122 -12 217 -109 225 -230c1 -20 0 -25 -7 -25c-2 0 -7 4 -11 9c-5 6 -12 11 -21 15c-11 6 -15 7 -28 7c-19 0 -34 -7 -48 -21c-5 -6 -11 -10 -13 -10s-6 4 -10 9c-5 6 -12 11 -21 15c-11 6 -15 7 -28 7
c-18 0 -33 -5 -45 -17l-7 -7v-90c0 -68 0 -91 2 -95c1 -3 6 -7 10 -10c14 -9 32 0 35 17c3 16 16 15 16 -2c0 -12 -9 -24 -21 -31c-19 -10 -44 -2 -54 18l-4 9v91v91l-5 6c-3 4 -11 9 -19 13c-12 6 -15 7 -28 7c-19 0 -34 -7 -48 -21c-5 -6 -11 -10 -13 -10s-6 4 -10 9
c-5 6 -12 11 -21 15c-11 6 -15 7 -28 7c-19 0 -34 -7 -48 -21c-5 -6 -11 -10 -13 -10c-7 0 -8 6 -7 26c7 100 75 187 171 218c18 6 50 12 62 12h7v14c0 8 1 15 2 16zM224 391c-99 -11 -181 -84 -202 -181c-2 -9 -4 -19 -4 -22v-4l8 5c29 17 69 14 93 -7l9 -9l6 6
c28 26 77 28 105 3l9 -9l6 6c28 26 77 28 105 3l9 -9l6 6c25 23 64 28 95 10l9 -5v4c0 8 -8 39 -13 53c-22 59 -69 107 -127 132c-34 15 -77 22 -114 18z" />
    <glyph glyph-name="wallet-1" unicode="&#xf8a4;" horiz-adv-x="494" 
d="M263 376c60 22 110 40 112 40s5 -1 6 -2s7 -19 15 -40l14 -38h16c18 -1 24 -4 32 -15c4 -5 4 -8 5 -59v-54l9 -1c7 -1 11 -2 16 -7l6 -6v-42v-42l-6 -6c-5 -5 -9 -6 -16 -7l-9 -1v-54c-1 -51 -1 -54 -5 -59c-2 -3 -7 -8 -10 -10c-5 -4 -6 -4 -217 -4s-212 0 -217 4
c-3 2 -8 7 -10 10c-4 5 -4 7 -4 169s0 164 4 169c2 3 7 8 10 10c5 4 9 4 73 5h67zM287 367l-84 -30l48 -1h95l47 1l-11 30c-6 16 -12 30 -12 30s-37 -13 -83 -30zM20 315l-5 -5v-158v-158l5 -5l5 -5h206h206l5 5l5 5v51v51h-57l-57 1l-6 7l-7 6v42v42l7 6l6 7l57 1h57v51v51
l-5 5l-5 5h-206h-206zM81 286c4 4 26 2 29 -2c2 -3 2 -5 0 -8c-3 -4 -24 -6 -28 -2c-3 3 -4 9 -1 12zM161 286c4 4 26 2 29 -2c2 -3 2 -5 0 -8c-3 -4 -24 -6 -28 -2c-3 3 -4 9 -1 12zM241 286c4 4 26 2 29 -2c2 -3 2 -5 0 -8c-3 -4 -24 -6 -28 -2c-3 3 -4 9 -1 12zM321 286
c4 4 26 2 29 -2c2 -3 2 -5 0 -8c-3 -4 -24 -6 -28 -2c-3 3 -4 9 -1 12zM337 190c-2 -2 -2 -13 -2 -38s0 -36 2 -38c3 -3 137 -3 140 0s3 73 0 76s-137 3 -140 0zM372 163c7 7 16 7 22 0s7 -15 0 -22s-15 -6 -22 0s-7 15 0 22zM113 30c4 4 26 2 29 -2c2 -3 2 -5 0 -8
c-3 -4 -24 -6 -28 -2c-3 3 -4 9 -1 12zM193 30c4 4 26 2 29 -2c2 -3 2 -5 0 -8c-3 -4 -24 -6 -28 -2c-3 3 -4 9 -1 12zM273 30c4 4 26 2 29 -2c2 -3 2 -5 0 -8c-3 -4 -24 -6 -28 -2c-3 3 -4 9 -1 12zM353 30c-3 -3 -2 -9 1 -12c4 -4 25 -2 28 2c2 3 2 5 0 8
c-3 4 -25 6 -29 2z" />
    <glyph glyph-name="store-1" unicode="&#xf89d;" 
d="M77 404c3 3 14 4 171 4s167 -1 170 -4c2 -2 19 -30 37 -62s35 -61 37 -63c3 -4 4 -7 3 -17c-2 -23 -17 -45 -37 -54l-10 -5v-111c0 -84 -1 -112 -3 -114c-3 -3 -392 -3 -395 0c-2 2 -2 30 -2 114v111l-9 4c-20 8 -37 32 -39 55c-1 10 0 13 3 17c2 2 20 31 38 63
s34 60 36 62zM80 378c-4 -7 -17 -29 -28 -49s-23 -39 -25 -43l-3 -6h49h50l17 54c9 30 16 55 16 56s-12 2 -34 2h-34zM170 380c-2 -7 -9 -31 -16 -54s-13 -43 -14 -44c-1 -2 11 -2 50 -2h50v56v56h-33h-33zM256 336v-56h50c39 0 50 0 49 2c-1 1 -6 21 -13 44s-14 47 -16 54
l-4 12h-33h-33v-56zM340 390c0 -1 7 -26 16 -56l17 -54h49h50l-5 8c-3 5 -17 30 -32 56l-27 47l-34 1c-23 0 -34 -1 -34 -2zM17 258c3 -15 14 -30 28 -37c11 -6 35 -5 45 0c15 8 26 22 29 37l1 6h-52h-52zM137 258c3 -15 14 -30 28 -37c11 -6 35 -5 45 0c15 8 26 22 29 37
l1 6h-52h-52zM257 258c3 -15 14 -30 28 -37c11 -6 35 -5 45 0c15 8 26 22 29 37l1 6h-52h-52zM377 258c3 -15 14 -30 28 -37c11 -6 35 -5 45 0c15 8 26 22 29 37l1 6h-52h-52zM122 227c-9 -14 -34 -27 -51 -27h-7v-104v-104h104h104v86c0 64 0 86 2 88c3 3 104 3 107 0
c2 -2 3 -24 3 -88v-86h24h24v104v103l-11 2c-19 2 -36 11 -49 28l-4 6l-5 -6c-7 -10 -15 -17 -27 -23c-9 -5 -14 -5 -28 -5s-19 1 -28 5c-11 5 -20 12 -28 23l-4 6l-5 -6c-7 -10 -15 -17 -27 -23c-9 -5 -14 -5 -28 -5s-19 1 -28 5c-10 5 -30 22 -30 26s-4 2 -8 -5zM114 166
c3 3 120 3 123 0s3 -105 0 -108s-120 -3 -123 0s-3 105 0 108zM128 112v-40h48h48v40v40h-48h-48v-40zM288 72v-80h40h40v80v80h-40h-40v-80z" />
    <glyph glyph-name="repository-1" unicode="&#xf88b;" horiz-adv-x="495" 
d="M61 437c5 2 39 2 189 2h183l7 -5c5 -4 12 -15 31 -55l24 -50v-121v-122l-6 -6l-7 -7l-113 -1h-113v-56v-56h46c42 0 47 -1 49 -4s2 -5 0 -8s-9 -3 -103 -3s-101 0 -103 3s-2 5 0 8s7 4 49 4h46v56v56h-113l-113 1l-6 7l-7 6v119l-1 119l23 51c13 28 26 52 28 55s7 6 10 7
zM64 420c-4 -3 -36 -70 -36 -74c0 -1 100 -2 221 -2h221l-18 38c-10 21 -19 39 -21 40c-3 2 -43 2 -183 2c-168 0 -180 -1 -184 -4zM18 326c-2 -2 -2 -17 -2 -56v-54h232h232v54c0 39 0 54 -2 56c-3 3 -457 3 -460 0zM71 294c7 3 19 1 26 -6c5 -5 6 -8 6 -16
c0 -9 0 -10 -6 -16s-8 -7 -17 -7s-10 1 -16 7s-7 8 -7 16c0 10 5 18 14 22zM74 277c-5 -6 3 -16 10 -12s4 15 -4 15c-2 0 -5 -1 -6 -3zM259 278c2 2 22 2 86 2c77 0 84 -1 86 -4s2 -5 0 -8s-9 -4 -86 -4c-60 0 -84 0 -86 2c-3 3 -3 9 0 12zM16 146c0 -39 0 -54 2 -56
c3 -3 457 -3 460 0c2 2 2 17 2 56v54h-232h-232v-54zM71 166c7 3 19 1 26 -6c5 -5 6 -8 6 -16c0 -9 0 -10 -6 -16s-8 -7 -17 -7s-10 1 -16 7s-7 8 -7 16c0 10 5 18 14 22zM74 149c-5 -6 3 -16 10 -12s4 15 -4 15c-2 0 -5 -1 -6 -3zM259 150c2 2 22 2 86 2c77 0 84 -1 86 -4
s2 -5 0 -8s-9 -4 -86 -4c-60 0 -84 0 -86 2c-3 3 -3 9 0 12zM19 -42c2 2 8 2 22 2c16 0 20 -1 22 -4s2 -5 0 -8s-6 -4 -22 -4c-20 -1 -25 1 -25 8c0 2 2 5 3 6zM83 -42c2 2 8 2 22 2c16 0 20 -1 22 -4s2 -5 0 -8s-6 -4 -22 -4c-20 -1 -25 1 -25 8c0 2 2 5 3 6zM371 -42
c2 2 8 2 22 2c16 0 20 -1 22 -4s2 -5 0 -8s-6 -4 -22 -4c-20 -1 -25 1 -25 8c0 2 2 5 3 6zM435 -42c-1 -1 -3 -4 -3 -6c0 -7 5 -9 25 -8c16 0 20 1 22 4s2 5 0 8s-6 4 -22 4c-14 0 -20 0 -22 -2z" />
    <glyph glyph-name="smiley-1" unicode="&#xf898;" 
d="M211 437c47 7 98 0 142 -21c28 -13 48 -27 70 -49s36 -42 49 -70c45 -94 25 -206 -49 -280c-22 -22 -42 -36 -70 -49c-79 -38 -173 -30 -247 20c-20 14 -48 43 -62 63c-13 19 -28 51 -34 71c-25 89 -1 181 63 245c22 22 41 36 69 49c22 11 44 17 69 21zM216 422
c-32 -4 -79 -23 -105 -43c-91 -69 -120 -187 -72 -287c12 -25 25 -44 44 -63c22 -22 37 -31 62 -44c45 -22 89 -29 137 -22c74 11 138 57 172 123c46 90 29 198 -43 270c-51 51 -122 75 -195 66zM159 262c7 3 19 1 26 -6c5 -5 6 -8 6 -16c0 -9 -1 -10 -7 -16s-7 -7 -16 -7
s-11 1 -17 7s-6 8 -6 16c0 10 5 18 14 22zM319 262c7 3 19 1 26 -6c5 -5 6 -8 6 -16c0 -9 -1 -10 -7 -16s-7 -7 -16 -7s-11 1 -17 7s-6 8 -6 16c0 10 5 18 14 22zM162 245c-5 -6 2 -16 9 -12s5 15 -3 15c-2 0 -5 -1 -6 -3zM322 245c-5 -6 2 -16 9 -12s5 15 -3 15
c-2 0 -5 -1 -6 -3zM115 130c-5 -3 -4 -9 5 -22c10 -15 31 -35 47 -45c66 -40 152 -25 201 34c14 17 17 23 14 27c-5 8 -9 5 -21 -11c-6 -8 -17 -19 -24 -25c-13 -11 -40 -24 -55 -28c-57 -14 -119 11 -149 58c-5 8 -11 14 -13 14c-1 0 -3 -1 -5 -2z" />
    <glyph glyph-name="download-1" unicode="&#xf8a6;" horiz-adv-x="384" 
d="M186 437c1 1 4 3 6 3s5 -2 6 -3c2 -2 3 -52 3 -177v-175l54 58c30 32 55 57 57 57c4 0 8 -4 8 -8c0 -5 -124 -136 -128 -136s-126 137 -127 143c-1 4 3 9 7 9c2 0 24 -24 57 -61l54 -61l1 174c0 125 0 175 2 177zM3 86c-3 -3 -3 -137 0 -140c4 -4 376 -3 379 1
c2 2 2 22 2 70c0 62 -1 68 -4 70s-4 2 -7 0s-4 -8 -4 -65l-1 -62h-176h-176v62c0 63 0 66 -8 66c-2 0 -4 -1 -5 -2z" />
    <glyph glyph-name="customer-support-1" unicode="&#xf84f;" horiz-adv-x="488" 
d="M223 438c18 3 50 1 68 -5c27 -9 46 -23 60 -46c11 -19 16 -35 17 -65l1 -26h18c20 0 26 -2 34 -10c10 -9 11 -15 11 -50s-1 -41 -11 -50c-8 -8 -15 -10 -33 -10h-16l1 -12c4 -32 14 -63 23 -75c3 -4 4 -8 4 -10s-4 -9 -11 -16l-12 -12l15 -4c19 -4 44 -16 58 -28
c6 -5 15 -16 20 -24c11 -17 20 -42 17 -47c-2 -3 -23 -4 -242 -4c-270 -1 -247 -2 -243 15c7 29 36 63 64 77c8 4 23 9 31 11l15 4l-12 12c-7 7 -12 14 -12 16s3 7 6 11c8 11 17 37 22 62c2 11 4 21 4 22s-6 2 -18 2c-20 0 -28 2 -36 11s-10 15 -10 49c0 35 2 41 12 50
c9 8 14 10 38 10h22l1 26c1 28 4 41 13 60c14 28 45 50 81 56zM222 421c-6 -1 -12 -3 -13 -4c-2 -2 3 -23 10 -38c18 -39 58 -61 118 -66l15 -1v9c0 41 -19 76 -50 91c-23 11 -54 15 -80 9zM180 402c-5 -4 -11 -10 -14 -13c-13 -16 -22 -43 -22 -68c0 -13 1 -13 5 -11
c15 8 30 28 37 51c5 16 8 49 5 49c-1 0 -6 -4 -11 -8zM200 355c-8 -25 -27 -51 -47 -61l-9 -4l1 -33c0 -18 0 -39 2 -47c7 -37 26 -68 52 -87c7 -5 9 -9 9 -12c-1 -6 -7 -8 -12 -5c-4 2 -4 2 -4 -11c0 -23 -9 -37 -33 -47l-9 -4l5 -6c3 -3 18 -22 34 -42l30 -36h29h28l32 40
c17 22 32 40 33 41c1 2 -1 4 -7 7c-23 11 -30 22 -30 45v15l-6 -2c-3 -1 -12 -2 -21 -2c-14 1 -16 2 -23 7c-18 14 -18 38 1 52c5 4 8 4 25 4c22 0 27 -3 35 -15c2 -3 5 -6 6 -6c4 0 19 14 24 23l6 10l1 58l1 58l-22 3c-58 6 -98 26 -120 62l-6 10zM78 274l-6 -6v-32v-32
l6 -6c6 -6 7 -7 26 -6l19 1l3 19c1 10 2 31 2 44v24h-22c-22 0 -22 0 -28 -6zM368 250c0 -17 1 -37 2 -44l1 -14h17c16 0 17 0 23 6l5 6v32v32l-5 6c-6 6 -7 6 -24 6h-19v-30zM136 168c-3 -27 -17 -68 -26 -83l-3 -6l6 -6c10 -9 19 -15 24 -15c7 0 26 10 33 17c6 7 6 8 6 26
v19l-10 12c-6 6 -13 18 -18 28s-9 18 -10 18s-1 -4 -2 -10zM349 148c-5 -5 -14 -12 -19 -14l-9 -5v-24c0 -29 1 -32 18 -41c15 -8 19 -8 33 5l10 9l-7 14c-4 8 -9 23 -11 34s-4 22 -5 25l-2 6zM261 147c-3 -3 -5 -7 -5 -11s2 -8 5 -11c4 -4 7 -5 19 -5s16 1 20 5
c3 3 4 7 4 11s-1 8 -4 11c-4 4 -8 5 -20 5s-15 -1 -19 -5zM106 33c-12 -3 -27 -8 -34 -11c-17 -9 -38 -30 -46 -47c-3 -7 -6 -13 -5 -14s40 -1 89 -1l88 1l-32 38c-18 21 -33 38 -35 38s-13 -1 -25 -4zM330 2c-16 -20 -29 -38 -30 -39c-1 -2 12 -3 84 -3h86l-4 9
c-14 33 -41 54 -82 64c-12 3 -22 5 -23 5s-15 -16 -31 -36z" />
    <glyph glyph-name="mail-1" unicode="&#xf871;" 
d="M3 358c3 3 488 3 491 0s3 -329 0 -332s-488 -3 -491 0s-3 329 0 332zM59 314c73 -71 187 -181 189 -181s98 91 188 179l32 32h-220h-219zM16 192v-140l59 59c32 33 63 66 70 73l12 13l-47 45c-26 25 -57 56 -70 68l-24 22v-140zM410 265c-38 -37 -69 -69 -69 -70
s31 -33 69 -72l69 -70l1 69v140l-1 70zM98 112l-70 -71l110 -1h220l110 1l-71 72l-70 72l-38 -37c-21 -20 -39 -36 -41 -36s-19 16 -40 36s-37 36 -38 36s-33 -33 -72 -72z" />
    <glyph glyph-name="loading-1" unicode="&#xf86e;" 
d="M3 422c3 3 488 3 491 0s3 -457 0 -460s-488 -3 -491 0s-3 457 0 460zM16 368v-40h232h232v40v40h-232h-232v-40zM45 379c7 7 16 7 22 0s7 -15 0 -22s-14 -6 -21 0s-8 15 -1 22zM101 379c7 7 16 7 22 0s7 -15 0 -22s-14 -6 -21 0s-8 15 -1 22zM157 379c7 7 16 7 22 0
s7 -15 0 -22s-14 -6 -21 0s-8 15 -1 22zM16 144v-168h232h232v168v168h-232h-232v-168zM163 262c3 3 168 3 171 0c4 -4 2 -9 -13 -39c-16 -31 -31 -57 -44 -71l-8 -8l8 -8c13 -14 28 -40 44 -71c15 -30 17 -35 13 -39c-3 -3 -168 -3 -171 0c-4 4 -3 9 12 39
c16 31 32 57 45 71l8 8l-8 8c-13 14 -29 40 -45 71c-15 30 -16 35 -12 39zM192 224c22 -43 45 -72 56 -72s34 29 56 72l13 24h-69h-68zM232 124c-6 -6 -13 -14 -14 -16l-2 -4h32h32l-2 4c-5 9 -25 28 -30 28c-3 0 -8 -4 -16 -12zM192 64l-12 -24h68h69l-13 24l-13 24h-43
h-43l-13 -24z" />
    <glyph glyph-name="syncing-document-1" unicode="&#xf89e;" 
d="M2 422c3 3 137 3 140 0c1 -1 2 -8 2 -16v-14h86c64 0 86 0 88 -2s2 -22 2 -80v-78h86c64 0 86 0 88 -2s2 -33 2 -123v-119l-6 -6l-6 -6h-148h-148l-6 6l-6 6v74v74h-82h-82l-6 6l-6 6v135c0 103 0 137 2 139zM16 280v-128h80h80v54c0 39 0 54 2 56s19 2 64 2h62v56v56
h-86c-64 0 -86 0 -88 2c-1 1 -2 8 -2 16v14h-56h-56v-128zM390 377c12 12 24 23 26 23c4 0 8 -4 8 -8c0 -2 -6 -9 -14 -17l-14 -14l37 -1c35 -1 37 -1 44 -6c4 -3 9 -9 12 -13c5 -7 6 -10 6 -25c0 -14 0 -17 -3 -19c-7 -4 -11 1 -12 18c-1 14 -2 16 -8 22l-6 6l-36 1h-35
l15 -14c8 -8 14 -16 14 -18c0 -4 -4 -8 -8 -8s-48 44 -48 48c0 2 10 13 22 25zM192 120v-128h144h144v112v112h-86c-64 0 -86 0 -88 2c-1 1 -2 8 -2 16v14h-56h-56v-128zM2 69c-2 -2 -3 -8 -2 -19c1 -18 6 -27 19 -36c8 -5 9 -5 45 -6l36 -1l-14 -14c-8 -8 -14 -15 -14 -17
c0 -4 4 -8 8 -8s48 44 48 48s-44 48 -48 48s-8 -4 -8 -8c0 -2 6 -10 14 -18l15 -14h-35l-36 1l-6 6c-6 6 -7 8 -8 21c0 8 -1 17 -2 18c-3 3 -9 3 -12 -1z" />
    <glyph glyph-name="stopwatch-1" unicode="&#xf89c;" horiz-adv-x="455" 
d="M189 427c5 5 6 5 27 5s22 0 27 -5s4 -7 4 -29v-24l6 -1c35 -7 68 -23 92 -41l13 -10l12 12l11 11l-9 10c-10 11 -14 17 -12 24c2 6 26 29 31 29c8 0 15 -5 39 -29c23 -23 28 -31 25 -39c-2 -6 -26 -28 -31 -28c-6 0 -14 5 -23 14l-8 8l-12 -11l-11 -12l9 -11
c56 -65 68 -160 30 -235c-67 -133 -238 -162 -344 -59c-94 91 -85 246 20 326c23 18 59 33 93 41l5 1v24c0 23 1 24 6 29zM199 396v-20h16h16v20v20h-16h-16v-20zM384 383l-9 -8l24 -24l24 -23l8 9l8 8l-23 24l-24 23zM192 359c-42 -6 -76 -22 -107 -48
c-31 -27 -53 -62 -64 -105c-6 -26 -6 -70 1 -96c10 -36 26 -65 52 -91s56 -43 91 -53c17 -4 23 -5 50 -5s34 1 51 5c72 19 126 75 144 148c6 24 6 68 0 92c-19 74 -75 130 -148 148c-16 4 -57 7 -70 5zM210 326c1 1 3 2 5 2c8 0 8 -2 8 -71c0 -57 1 -67 3 -67s7 -4 11 -8
c9 -8 12 -17 10 -29c-2 -8 -12 -20 -19 -22c-5 -1 -4 -2 -5 -24c0 -19 -1 -24 -4 -26s-4 -2 -7 0s-4 7 -4 26c-1 22 0 23 -5 24c-7 2 -17 14 -19 22c-2 12 1 21 10 29c4 4 9 8 11 8s2 10 2 67c0 49 1 67 3 69zM204 171c-3 -3 -5 -7 -5 -11s2 -8 5 -11s7 -5 11 -5s9 2 12 5
s4 7 4 11s-1 8 -4 11s-8 5 -12 5s-8 -2 -11 -5z" />
    <glyph glyph-name="spacecraft-1" unicode="&#xf89a;" horiz-adv-x="400" 
d="M184 429c7 6 14 11 16 11c5 0 31 -23 46 -42c16 -19 30 -45 36 -66c3 -12 4 -22 5 -50l1 -34h13c14 0 22 -5 30 -16c4 -7 5 -7 5 -62v-56l5 -5c4 -4 7 -5 21 -5c18 0 25 -4 33 -16c4 -7 5 -8 5 -57c0 -36 0 -51 -2 -53s-12 -2 -32 -2h-30v-14c0 -8 -1 -15 -2 -16
c-3 -3 -105 -3 -108 0c-1 1 -2 8 -2 16v14h-24h-24v-14c0 -8 -1 -15 -2 -16c-3 -3 -105 -3 -108 0c-1 1 -2 8 -2 16v14h-30c-20 0 -30 0 -32 2s-2 17 -2 53c0 49 1 50 5 57c8 12 15 16 33 16c14 0 17 1 21 5l5 5v56c0 55 1 55 5 62c8 11 16 16 30 16h13l1 34
c1 39 3 50 15 76c13 27 33 52 56 71zM180 402c-18 -19 -33 -40 -41 -60c-10 -26 -11 -32 -11 -172v-130l10 -3c14 -5 30 -21 35 -35l3 -10h24h24l3 10c5 14 21 30 35 35l10 3v130c0 140 -1 146 -11 172c-3 7 -9 20 -14 28c-11 17 -42 50 -47 50c-2 0 -11 -8 -20 -18z
M182 308c19 10 43 2 54 -18c10 -19 2 -43 -18 -54c-19 -10 -43 -2 -54 18c-10 19 -2 43 18 54zM191 294c-12 -5 -18 -22 -13 -32c4 -9 16 -14 25 -13c20 3 27 27 12 41c-5 5 -18 7 -24 4zM85 227l-5 -5v-55c0 -54 -1 -56 -5 -64c-7 -11 -15 -15 -34 -15c-14 0 -16 -1 -20 -5
c-5 -5 -5 -5 -5 -48v-43h24h24l3 10c5 14 21 30 35 35l10 3v96v96h-11c-9 0 -12 -1 -16 -5zM288 136v-96l10 -3c14 -5 30 -21 35 -35l3 -10h24h24v43c0 43 0 43 -5 48c-4 4 -6 5 -20 5c-19 0 -27 4 -34 15c-4 8 -5 10 -5 64v55l-5 5c-4 4 -7 5 -16 5h-11v-96zM102 18
c-9 -5 -11 -7 -16 -16s-6 -13 -6 -26v-16h40h40v16c0 13 -1 17 -6 26s-7 11 -16 16c-6 3 -14 6 -18 6s-12 -3 -18 -6zM262 18c-9 -5 -11 -7 -16 -16s-6 -13 -6 -26v-16h40h40v16c0 13 -1 17 -6 26s-7 11 -16 16c-6 3 -14 6 -18 6s-12 -3 -18 -6z" />
    <glyph glyph-name="image-gallery-1" unicode="&#xf866;" 
d="M3 438c3 3 424 3 427 0c2 -2 2 -12 2 -32v-30h30c20 0 30 0 32 -2c3 -3 3 -425 0 -428s-424 -3 -427 0c-2 2 -3 12 -3 32v30h-29c-20 0 -30 0 -32 2c-3 3 -3 425 0 428zM16 224v-200h24h24v174c0 132 1 174 3 176s44 2 176 2h173v24v24h-200h-200v-200zM80 208v-152h16
c15 0 16 0 17 4c7 39 18 71 32 92c10 15 19 22 33 28c8 3 12 4 23 3c25 -2 36 -9 56 -39l6 -9l2 5c1 3 7 19 12 37c15 51 28 72 48 82c29 13 55 -3 78 -52c16 -33 29 -75 39 -123l6 -27l16 -1h16v152v152h-200h-200v-152zM155 310c10 3 26 1 34 -4c4 -2 9 -7 12 -12
c5 -7 6 -11 6 -22s-1 -15 -6 -22c-9 -13 -17 -17 -33 -17c-11 0 -14 1 -21 6c-15 10 -22 27 -17 45c3 10 15 23 25 26zM159 294c-9 -4 -14 -12 -14 -22c0 -8 1 -10 7 -16s7 -7 16 -7s11 1 17 7s6 7 6 16c0 8 -1 11 -6 16c-7 7 -19 9 -26 6zM330 244c-15 -8 -23 -23 -43 -89
c-5 -17 -9 -25 -13 -29c-10 -10 -21 -6 -33 13c-13 21 -26 29 -45 29c-29 0 -55 -42 -67 -106l-1 -6h152h151l-2 9c-3 18 -11 57 -20 84c-16 49 -35 83 -52 94c-9 6 -17 6 -27 1zM80 0v-40h200h200v40v40h-200h-200v-40z" />
    <glyph glyph-name="puzzle-1" unicode="&#xf888;" horiz-adv-x="495" 
d="M169 438c3 1 11 1 18 1c20 -1 36 -11 46 -29c11 -20 9 -45 -5 -61c-9 -11 -12 -16 -12 -24c0 -13 0 -13 78 -13c51 0 70 0 72 -2s2 -24 2 -88c0 -95 0 -94 13 -94c8 0 13 2 24 11c16 14 41 16 61 6c11 -6 18 -13 25 -26c6 -12 6 -34 0 -46c-7 -13 -14 -20 -25 -26
c-20 -10 -45 -8 -61 6c-11 9 -16 11 -24 11c-13 0 -13 -2 -13 -62c0 -39 0 -54 -2 -56s-14 -2 -41 -2c-43 0 -48 2 -56 14c-9 13 -5 30 10 49c17 21 8 52 -18 62c-12 4 -22 3 -34 -4c-11 -7 -17 -17 -18 -31c-1 -11 2 -20 11 -30c18 -20 16 -46 -4 -56c-6 -3 -16 -4 -109 -4
c-77 0 -102 0 -104 2c-4 4 -4 204 0 213c5 11 12 16 24 17s23 -4 37 -15c21 -17 51 -8 61 18c4 12 3 23 -4 35c-7 11 -17 17 -31 18c-11 1 -20 -3 -30 -12c-20 -18 -46 -16 -56 4c-3 6 -4 13 -4 45c0 27 1 39 3 41s20 2 71 2c78 0 78 0 78 14c0 5 -2 10 -5 14s-7 10 -10 14
c-6 9 -10 26 -8 38c3 19 21 40 40 46zM167 419c-23 -12 -30 -40 -14 -60c15 -19 20 -36 11 -49s-11 -14 -83 -14h-65v-32c0 -36 1 -40 13 -40c8 0 13 2 24 11c16 14 41 16 61 6c11 -6 18 -13 25 -26c6 -12 6 -34 0 -46c-7 -13 -14 -20 -25 -26c-20 -10 -45 -8 -61 6
c-11 9 -16 11 -24 11c-14 0 -13 3 -13 -104v-96h96c107 0 104 -1 104 13c0 8 -2 13 -11 24c-18 21 -16 53 3 74c3 3 9 8 15 11c13 7 36 8 48 1c13 -7 21 -15 27 -26c10 -20 8 -44 -6 -60c-9 -11 -12 -16 -12 -24c0 -12 5 -13 41 -13h31v48c0 52 1 57 11 66c4 3 8 5 16 6
c12 1 23 -4 37 -15c21 -17 51 -8 61 18c9 24 -8 50 -35 53c-11 1 -20 -3 -30 -12c-20 -18 -46 -16 -56 4c-3 6 -4 15 -4 88v80h-64c-57 0 -66 1 -72 4c-20 10 -21 35 -3 57c18 21 13 50 -11 62c-13 7 -22 6 -35 0z" />
    <glyph glyph-name="messaging-app-1" unicode="&#xf875;" 
d="M311 439c3 1 17 0 31 0c50 -1 88 -18 120 -52c37 -39 44 -89 21 -136c-10 -21 -33 -45 -56 -59c-15 -9 -25 -17 -57 -49c-21 -21 -40 -39 -42 -39c-7 0 -8 4 -8 34c0 32 0 32 -11 32c-3 0 -11 2 -20 5l-17 4v-20c0 -34 -8 -59 -25 -81c-6 -8 -7 -9 -7 -22
c0 -11 1 -15 4 -18c5 -5 22 -11 45 -16c32 -7 51 -16 64 -31c11 -13 18 -38 13 -44c-2 -3 -24 -3 -182 -3c-137 0 -179 0 -181 2c-7 7 0 32 14 47c13 14 28 22 58 28c27 6 40 10 48 15c5 4 5 5 5 19s0 15 -7 24c-10 13 -17 28 -21 45c-5 20 -6 88 -1 108c8 33 32 55 66 62
l11 2v11c0 46 36 95 86 117c12 6 35 13 49 15zM305 421c-32 -6 -56 -18 -79 -41c-22 -21 -34 -48 -34 -75v-9l12 -2c24 -5 47 -20 57 -39c7 -12 11 -32 11 -47v-11l14 -5c7 -2 20 -5 29 -6s18 -4 19 -5c2 -1 2 -9 2 -26v-24l35 34c26 25 37 36 47 41c8 4 19 13 28 22
c45 45 46 107 1 152c-8 8 -21 18 -27 22c-32 19 -77 26 -115 19zM262 315c7 7 15 7 21 0s7 -15 0 -22s-14 -6 -21 0s-7 15 0 22zM326 315c7 7 15 7 21 0s7 -15 0 -22s-14 -6 -21 0s-7 15 0 22zM390 315c7 7 15 7 21 0s7 -15 0 -22s-14 -6 -21 0s-7 15 0 22zM163 277
c-26 -7 -42 -23 -48 -49c-4 -16 -4 -83 0 -100c4 -16 12 -30 22 -42l7 -10v-20v-21l-8 -8c-10 -9 -25 -15 -54 -21c-10 -2 -24 -6 -30 -8c-14 -5 -29 -18 -33 -29l-2 -8l166 -1c91 0 167 1 167 1c2 2 -3 12 -10 20c-11 12 -27 20 -59 27c-30 7 -45 14 -52 24
c-4 6 -5 9 -5 25c0 18 1 19 6 25c10 11 15 19 20 33c5 13 5 16 6 55c1 48 -1 62 -10 78c-15 25 -51 38 -83 29z" />
    <glyph glyph-name="iphone-1" unicode="&#xf868;" horiz-adv-x="304" 
d="M19 437c5 2 31 2 135 2c127 0 130 0 135 -4c3 -2 8 -7 10 -10c4 -5 3 -6 4 -230c1 -251 2 -234 -13 -245l-7 -5h-131c-130 0 -133 0 -138 4c-3 2 -7 7 -9 10c-4 5 -4 7 -5 228c0 122 0 224 1 228c1 8 10 18 18 22zM21 419c-5 -5 -5 -6 -5 -24v-19h136h136v19
c0 18 0 19 -5 24l-5 5h-126h-126zM16 208v-152h136h136v152v152h-136h-136v-152zM16 5c0 -35 0 -35 5 -40l5 -5h126h126l5 5c5 5 5 5 5 40v35h-136h-136v-35zM143 22c7 3 19 1 26 -6c5 -5 6 -8 6 -16c0 -9 -1 -10 -7 -16s-7 -7 -16 -7s-11 1 -17 7s-6 8 -6 16
c0 10 5 18 14 22zM146 5c-5 -6 2 -16 9 -12s5 15 -3 15c-2 0 -5 -1 -6 -3z" />
    <glyph glyph-name="message-app-1" unicode="&#xf874;" horiz-adv-x="480" 
d="M22 435l9 5h214c210 0 215 0 221 -4c4 -2 8 -6 10 -10c4 -6 4 -11 4 -90s0 -84 -4 -90c-2 -4 -6 -8 -10 -10c-6 -4 -11 -4 -67 -4h-60l-28 -28c-15 -15 -29 -28 -31 -28c-7 0 -8 4 -8 30v26h-29c-33 0 -39 1 -47 14c-4 6 -4 10 -4 60v54h-88h-88v-144v-144h128h128v22
c0 19 2 23 5 25s4 2 7 0s3 -9 3 -76v-73l-6 -8c-3 -5 -10 -10 -15 -13l-9 -5h-115l-116 1l-8 6c-5 3 -10 10 -13 15l-5 9l1 219v220l6 8c3 5 10 10 15 13zM31 422c-2 -1 -6 -4 -9 -7c-4 -5 -5 -7 -6 -22v-17h88h88v21c0 11 0 22 1 24c1 3 -6 3 -78 3c-44 0 -82 -1 -84 -2z
M212 420c-4 -4 -4 -7 -4 -84s0 -80 4 -84s7 -4 38 -4c23 0 34 0 36 -2s2 -10 2 -23v-20l23 23l22 22h62c59 0 61 0 65 4s4 7 4 84s0 80 -4 84s-7 4 -124 4s-120 0 -124 -4zM261 347c3 3 7 5 11 5c8 0 16 -8 16 -16s-8 -16 -16 -16c-14 0 -21 17 -11 27zM325 347
c3 3 7 5 11 5c8 0 16 -8 16 -16s-8 -16 -16 -16c-14 0 -21 17 -11 27zM389 347c3 3 7 5 11 5c8 0 16 -8 16 -16s-8 -16 -16 -16c-14 0 -21 17 -11 27zM16 18c0 -42 1 -45 12 -53l7 -5h111l112 1l7 7l6 6l1 41v41h-128h-128v-38zM133 19c-3 -3 -5 -7 -5 -11s2 -8 5 -11
s7 -5 11 -5s8 2 11 5s5 7 5 11s-2 8 -5 11s-7 5 -11 5s-8 -2 -11 -5z" />
    <glyph glyph-name="new-badge-1" unicode="&#xf87b;" 
d="M179 422c10 10 19 18 20 18s12 -4 24 -9s23 -9 25 -9s13 4 25 9s23 9 24 9s10 -8 20 -18l18 -18h25c19 0 27 -1 29 -3s6 -12 11 -23s10 -22 11 -23s11 -6 23 -11s23 -10 24 -12c2 -2 2 -11 2 -28v-25l18 -18c10 -10 18 -19 18 -20s-4 -12 -9 -24s-9 -23 -9 -25
s4 -13 9 -25s9 -23 9 -24s-8 -10 -18 -20l-18 -18v-25c0 -17 0 -26 -2 -28c-1 -2 -12 -7 -24 -12s-22 -10 -23 -11s-6 -12 -11 -23s-9 -21 -11 -23s-10 -3 -29 -3h-25l-18 -18c-10 -10 -19 -18 -20 -18s-12 4 -24 9s-23 9 -25 9s-13 -4 -25 -9s-23 -9 -24 -9s-10 8 -20 18
l-18 18h-25c-19 0 -27 1 -29 3s-6 12 -11 23s-10 22 -11 23s-11 6 -23 11s-23 10 -24 12c-2 2 -2 11 -2 28v25l-18 18c-10 10 -18 19 -18 20s4 12 9 24s9 23 9 25s-4 13 -9 25s-9 23 -9 24s8 10 18 20l18 18v25c0 17 0 26 2 28c1 2 12 7 24 12s22 10 23 11s6 12 11 23
s9 21 11 23s10 3 29 3h25zM185 406l-16 -17l-26 -1l-26 -1l-9 -21c-5 -12 -10 -22 -11 -23s-11 -6 -23 -11l-21 -9l-1 -26l-1 -26l-17 -16l-17 -16l10 -24l10 -23l-10 -23l-10 -24l17 -16l17 -15l1 -27l1 -26l21 -9c12 -5 22 -10 23 -11s6 -11 11 -23l9 -21l26 -1l26 -1
l16 -17l16 -17l24 10l23 10l23 -10l24 -10l16 17l16 17l26 1l26 1l9 21c5 12 10 22 11 23s11 6 23 11l21 9l1 26l1 26l17 16l17 16l-10 24l-10 23l10 23l10 24l-17 16l-17 16l-1 26l-1 26l-21 9c-12 5 -22 10 -23 11s-6 11 -11 23l-9 21l-26 1l-26 1l-16 17l-16 17l-24 -10
l-23 -10l-22 10c-12 5 -23 9 -24 9s-8 -7 -17 -16zM146 253c3 3 9 3 12 0c2 -2 2 -19 2 -58c0 -50 -1 -56 -4 -58s-5 -2 -8 0c-2 1 -14 19 -27 39l-25 37v-41c0 -36 -1 -41 -4 -43s-5 -2 -8 0s-4 8 -4 58c0 39 0 56 2 58c6 7 9 4 35 -35l26 -39l1 40c0 25 1 40 2 42z
M290 253c3 4 9 4 12 1c1 -1 6 -22 12 -45s12 -41 13 -40s5 14 10 28c12 33 13 35 23 35c4 0 8 -1 9 -2s7 -16 12 -32s10 -29 11 -30s7 17 13 41s13 44 14 45c3 3 10 2 12 -2s-27 -111 -31 -114c-5 -3 -14 -2 -16 2c-1 2 -6 18 -12 35s-11 33 -12 34s-7 -13 -13 -31
c-13 -38 -15 -42 -22 -42c-3 0 -6 1 -8 4c-2 2 -9 28 -16 57c-11 43 -13 53 -11 56zM194 246c-4 -4 -3 -105 1 -108c2 -2 13 -2 38 -2c31 0 36 1 38 4s2 5 0 8s-7 4 -33 4h-30v16v16h22c19 0 23 1 25 4s2 5 0 8s-6 4 -25 4h-22v16v16h30c26 0 31 1 33 4s2 5 0 8s-6 4 -38 4
c-26 0 -37 0 -39 -2z" />
    <glyph glyph-name="id-card-1" unicode="&#xf865;" 
d="M211 422c3 3 72 3 75 0c2 -2 2 -10 2 -24v-22h102c76 0 102 0 104 -2c3 -3 3 -409 0 -412s-488 -3 -491 0s-3 409 0 412c2 2 28 2 104 2h101v22c0 14 1 22 3 24zM224 368v-40h24h24v40v40h-24h-24v-40zM16 168v-192h232h232v192v192h-96h-96v-22c0 -14 0 -22 -2 -24
c-3 -3 -72 -3 -75 0c-2 2 -3 10 -3 24v22h-96h-96v-192zM147 260c31 11 64 -2 78 -31l6 -14v-33c0 -37 -3 -48 -16 -65c-5 -7 -7 -11 -7 -17c0 -10 4 -12 23 -18c24 -7 37 -23 40 -43c2 -16 9 -15 -103 -15c-75 0 -99 0 -101 2c-7 7 1 34 13 44c7 6 12 8 29 13
c21 6 25 17 12 33s-15 27 -16 61c-1 24 0 33 2 41c6 20 20 35 40 42zM291 262c2 2 19 2 70 2c62 0 68 -1 70 -4s2 -5 0 -8s-8 -4 -70 -4c-48 0 -68 0 -70 2c-3 3 -3 9 0 12zM147 243c-12 -5 -19 -14 -24 -26c-3 -7 -3 -14 -2 -38c1 -33 3 -41 16 -57c6 -8 7 -9 7 -19
c0 -19 -8 -28 -31 -35s-28 -11 -32 -24l-1 -4h87c60 0 87 1 87 2c0 5 -6 14 -12 18c-4 2 -11 5 -17 7c-13 4 -21 8 -27 14c-4 4 -4 8 -5 19c-1 13 -1 13 5 20c3 4 9 13 12 19c5 11 5 13 5 43c0 28 0 32 -4 39c-13 24 -40 33 -64 22zM291 198c2 2 14 2 46 2c39 0 44 -1 46 -4
s2 -5 0 -8s-7 -4 -46 -4c-30 0 -44 0 -46 2c-3 3 -3 9 0 12zM291 134c-3 -3 -3 -9 0 -12c2 -2 20 -2 62 -2c54 0 60 1 62 4s2 5 0 8s-8 4 -62 4c-45 0 -60 0 -62 -2z" />
    <glyph glyph-name="shared-folder-1" unicode="&#xf895;" 
d="M2 437c3 4 184 5 188 1c2 -2 2 -10 2 -24v-22h150c125 0 150 -1 152 -3s2 -45 2 -161l-1 -158l-7 -6l-6 -7l-113 -1h-113v-48v-48h62c57 0 63 -1 65 -4s2 -5 0 -8s-11 -3 -135 -3s-133 0 -135 3s-2 5 0 8s8 4 65 4h62v48v48h-113l-113 1l-6 7l-7 6l-1 182
c0 134 0 183 2 185zM16 250c0 -132 0 -174 2 -176c3 -3 457 -3 460 0c2 2 2 38 2 152v150h-150c-114 0 -150 0 -152 2s-2 10 -2 24v22h-80h-80v-174zM2 -42c2 2 8 2 19 2c12 0 16 -1 18 -4s2 -5 0 -8s-6 -4 -18 -4c-16 -1 -21 2 -21 8c0 2 1 5 2 6zM50 -42c2 2 9 2 23 2
c16 0 20 -1 22 -4s2 -5 0 -8s-6 -4 -22 -4c-20 -1 -25 1 -25 8c0 2 1 5 2 6zM402 -42c2 2 9 2 23 2c16 0 20 -1 22 -4s2 -5 0 -8s-6 -4 -22 -4c-20 -1 -25 1 -25 8c0 2 1 5 2 6zM458 -42c-1 -1 -2 -4 -2 -6c0 -6 5 -9 21 -8c12 0 16 1 18 4s2 5 0 8s-6 4 -18 4
c-11 0 -17 0 -19 -2z" />
    <glyph glyph-name="play-1" unicode="&#xf882;" 
d="M211 437c47 7 98 0 142 -21c28 -13 48 -27 70 -49s36 -42 49 -70c45 -94 25 -206 -49 -280c-22 -22 -42 -36 -70 -49c-79 -38 -173 -30 -247 20c-20 14 -48 43 -62 63c-13 19 -28 51 -34 71c-25 89 -1 181 63 245c22 22 41 36 69 49c22 11 44 17 69 21zM216 422
c-32 -4 -79 -23 -105 -43c-91 -69 -120 -187 -72 -287c12 -25 25 -44 44 -63c22 -22 37 -31 62 -44c45 -22 89 -29 137 -22c74 11 138 57 172 123c46 90 29 198 -43 270c-51 51 -122 75 -195 66zM178 310c1 1 4 2 6 2c4 0 197 -113 199 -117c1 -2 1 -4 0 -6
c-2 -3 -191 -115 -198 -117c-2 -1 -4 1 -6 2c-3 2 -3 18 -3 118c0 87 0 116 2 118zM192 192c0 -82 0 -98 2 -97c1 1 39 23 83 49s81 47 81 48s-36 22 -79 47s-81 47 -83 49l-4 2v-98z" />
    <glyph glyph-name="pay-1" unicode="&#xf87e;" 
d="M246 429c14 4 36 2 49 -4c14 -6 27 -21 34 -35c5 -10 6 -14 6 -30s-1 -20 -6 -30c-7 -15 -20 -29 -35 -36c-10 -4 -14 -5 -29 -5c-16 0 -20 1 -32 7c-21 11 -35 30 -39 53c-6 36 17 70 52 80zM248 413c-25 -9 -39 -28 -39 -53c0 -22 11 -39 29 -49c37 -20 82 7 82 49
c0 16 -5 28 -17 40c-14 14 -37 19 -55 13zM133 285c17 5 41 2 57 -8c11 -7 21 -19 27 -32c5 -10 6 -15 6 -29s-1 -19 -6 -29c-26 -56 -105 -56 -131 0c-5 10 -5 15 -5 29s0 19 5 29c9 20 26 33 47 40zM133 269c-14 -4 -30 -21 -34 -35c-7 -22 -3 -41 13 -57
c18 -18 42 -21 65 -10c34 17 41 61 14 88c-16 16 -36 21 -58 14zM402 158c3 3 88 3 91 0s3 -185 0 -188s-88 -3 -91 0c-1 1 -2 8 -2 14s-1 12 -1 12s-21 -7 -46 -15c-47 -16 -75 -23 -97 -27c-38 -6 -58 0 -142 41c-59 29 -96 54 -108 76c-10 17 -7 28 7 33s39 -1 107 -24
c39 -13 42 -14 43 -10c2 6 13 18 20 22c5 3 14 3 44 4c44 2 54 4 79 20c29 18 45 24 77 27c16 1 17 2 17 7c0 3 1 7 2 8zM416 64v-80h32h32v80v80h-32h-32v-80zM378 127c-24 -3 -41 -10 -66 -26c-26 -16 -45 -21 -88 -21c-30 0 -37 -1 -43 -10c-4 -6 -4 -22 0 -28
c6 -9 10 -9 58 -10c41 -1 46 -1 48 -4s2 -5 0 -8s-7 -4 -47 -4c-37 0 -47 0 -54 3c-10 4 -22 17 -24 25c-1 6 -2 7 -52 23c-63 21 -90 26 -93 21c-4 -6 16 -27 44 -46c19 -13 93 -51 124 -63c44 -17 65 -16 164 17l51 17v57v58h-8c-4 0 -10 -1 -14 -1z" />
    <glyph glyph-name="dislike-hand-1" unicode="&#xf857;" 
d="M74 414c4 1 38 1 84 1h77l23 -8c51 -17 69 -21 81 -22l13 -2v6c0 3 1 8 2 9c3 3 136 3 139 0c2 -2 3 -36 3 -142c0 -119 -1 -140 -3 -142s-18 -1 -70 6c-37 5 -68 9 -69 10c-2 1 -2 9 -2 22c0 23 1 22 -19 12c-35 -19 -64 -73 -75 -140c-5 -32 -5 -35 -14 -44
c-18 -19 -49 -14 -63 8c-4 7 -4 9 -4 41c0 33 4 72 10 100c2 7 3 14 3 14s-37 1 -82 1l-81 1l-8 5c-15 9 -23 27 -18 45c2 8 12 21 20 25c4 2 3 2 0 8c-5 8 -7 21 -4 31c2 8 12 21 20 25c4 2 3 2 0 8c-5 8 -7 21 -4 31c2 8 12 21 20 25c4 2 3 2 0 8c-5 8 -7 22 -4 32
s16 23 25 26zM79 398c-15 -6 -20 -27 -9 -38c4 -4 9 -6 14 -7c9 -2 13 -8 10 -13c-2 -3 -5 -3 -17 -4c-14 -1 -16 -2 -22 -8s-6 -8 -6 -16s0 -11 5 -16c4 -4 9 -6 14 -7c9 -2 13 -8 10 -13c-2 -3 -5 -3 -17 -4c-14 -1 -16 -2 -22 -8s-6 -8 -6 -16s0 -11 5 -16
c4 -4 9 -6 14 -7c9 -2 13 -8 10 -13c-2 -3 -5 -3 -17 -4c-14 -1 -16 -2 -22 -8s-6 -7 -6 -16s0 -10 6 -16l7 -7l86 -1c74 0 88 0 90 -3c2 -2 1 -8 -2 -25c-7 -36 -11 -69 -11 -102v-32l6 -6c6 -6 9 -7 17 -7s10 1 15 6c3 3 7 9 8 12s2 15 4 26c9 57 33 109 62 135
c11 10 36 24 43 24c4 0 4 4 4 90v89l-14 2c-13 1 -29 5 -82 22l-23 8h-75c-41 0 -77 0 -79 -1zM368 264v-121l53 -7c29 -4 55 -6 56 -6c2 0 3 27 3 127v127h-56h-56v-120zM413 211c-7 -7 -7 -16 0 -22s14 -7 21 0s7 15 1 22s-15 7 -22 0z" />
    <glyph glyph-name="duplicate-tool-1" unicode="&#xf858;" horiz-adv-x="456" 
d="M2 353c1 2 3 3 5 3s36 -15 74 -33s70 -32 70 -32s-6 13 -13 29c-14 29 -15 34 -6 36c4 1 314 -143 320 -148c4 -3 5 -8 1 -11c-1 -1 -24 -11 -50 -22s-53 -22 -59 -24l-10 -5l-22 -56c-12 -31 -24 -59 -25 -60c-3 -4 -9 -2 -12 2c-2 2 -10 19 -19 38
c-40 87 -38 82 -43 80c-4 -2 -9 -13 -28 -61c-13 -32 -25 -59 -26 -60c-8 -5 -9 -3 -84 157c-41 86 -74 158 -75 160s1 5 2 7zM26 328c5 -11 127 -268 128 -269s10 21 21 48s20 51 21 52s25 12 53 23c50 20 51 20 46 23c-3 2 -31 15 -63 30s-63 29 -70 32
c-111 52 -135 63 -136 63s-1 -1 0 -2zM164 304l12 -25l75 -35c41 -19 76 -36 77 -38s2 -5 1 -7s-22 -11 -47 -21s-46 -19 -47 -20s42 -96 45 -99c1 0 11 22 22 50l20 51l14 6c8 3 28 11 43 17s32 14 37 16l10 4l-8 4c-10 5 -264 123 -265 123c0 0 4 -12 11 -26z" />
    <glyph glyph-name="literature-1" unicode="&#xf86d;" horiz-adv-x="400" 
d="M156 437c10 3 28 2 41 -2c11 -3 198 -79 201 -81c2 -2 2 -35 2 -157c0 -144 -1 -154 -4 -156s-4 -2 -7 0s-3 12 -4 152l-1 150l-93 38c-51 21 -99 39 -106 40c-15 3 -27 2 -35 -4s-7 -10 0 -18c5 -6 19 -11 94 -42c48 -20 89 -37 90 -38c2 -2 2 -34 2 -155
c0 -143 -1 -153 -4 -155s-4 -2 -7 0s-4 12 -5 151l-1 149l-46 19c-25 10 -66 26 -90 36c-51 21 -70 27 -83 25c-17 -3 -25 -13 -16 -23c7 -8 12 -9 99 -45c47 -19 87 -37 88 -38s1 -70 1 -153c0 -141 -1 -151 -4 -153s-4 -2 -7 0s-4 12 -5 150l-1 147l-81 33
c-45 18 -86 35 -92 38c-18 8 -36 12 -47 10c-10 -2 -19 -9 -19 -15c0 -10 13 -16 101 -53c47 -20 88 -36 89 -37c2 -2 2 -34 2 -153c0 -137 -1 -150 -4 -152s-23 6 -93 35c-100 41 -101 42 -107 62c-5 15 -6 301 -1 310c7 14 28 22 49 19l12 -2l1 9c2 19 26 31 52 27
c12 -2 11 -2 11 3c0 13 11 24 28 29zM16 183c0 -141 1 -139 11 -148c4 -3 107 -48 161 -69l4 -2v138v137l-77 32c-43 18 -82 34 -88 37l-11 6v-131z" />
    <glyph glyph-name="diploma-1" unicode="&#xf856;" horiz-adv-x="368" 
d="M137 432c4 5 9 8 11 8s11 -4 19 -9s16 -9 17 -9s9 4 17 9s18 9 20 9c3 0 9 -8 16 -17l12 -15l14 1c8 1 16 1 19 2c8 2 11 -3 15 -23c3 -15 5 -19 8 -20c28 -10 35 -13 36 -15s-1 -12 -3 -22l-4 -18l15 -14c8 -8 15 -15 15 -17s-5 -10 -11 -18s-11 -17 -11 -18s3 -9 7 -17
c10 -23 10 -23 -11 -35l-18 -10v-20c0 -18 0 -20 -4 -22c-2 -1 -4 -3 -4 -4s13 -33 28 -71s28 -70 28 -72c0 -6 -7 -7 -35 -3c-43 6 -37 8 -61 -22c-21 -26 -27 -31 -32 -24c-2 2 -26 72 -44 126c-4 11 -4 11 -12 11h-8l-24 -69c-23 -66 -24 -69 -29 -70c-4 -1 -8 3 -26 26
c-25 30 -19 28 -62 22c-29 -4 -35 -3 -35 4c0 2 13 35 29 73c27 67 28 70 24 72s-4 4 -5 22v21l-18 10c-21 12 -21 12 -11 35c4 8 7 16 7 17s-5 10 -11 18s-11 16 -11 18s7 9 15 17l15 14l-4 18c-2 10 -4 20 -3 22s8 5 36 15c3 1 5 5 8 20c4 20 7 25 15 23c3 -1 11 -1 19 -2
l14 -1l6 7c3 4 8 12 12 17zM139 407l-12 -16l-19 2l-19 1l-4 -16c-2 -9 -4 -18 -5 -19s-9 -5 -18 -8s-16 -6 -17 -7s0 -8 2 -16s3 -16 3 -18s-7 -10 -14 -17l-13 -13l10 -15c6 -8 11 -16 11 -17s-3 -9 -7 -18s-7 -16 -7 -17s7 -4 15 -9s16 -10 17 -12s2 -12 2 -21v-16l16 -2
c9 -1 17 -1 19 -2s7 -9 11 -18s8 -17 9 -17s9 2 18 5l17 5l6 -4c3 -3 10 -9 15 -13l9 -7l9 7c5 4 12 10 15 13l6 4l17 -5c9 -3 17 -5 18 -5s5 8 9 17s8 17 10 18s11 1 20 2l16 2v17c0 21 1 22 21 33c7 4 13 7 13 8s-3 8 -7 17s-7 17 -7 18s4 9 10 17l11 15l-14 13
c-7 7 -13 15 -13 17s1 10 3 18s2 15 1 16s-8 4 -17 7s-16 7 -17 8s-3 10 -5 19l-4 16l-19 -1l-20 -2l-11 16l-11 15l-12 -6c-24 -14 -22 -13 -28 -10c-3 2 -10 6 -16 10l-12 6zM154 364c16 5 43 5 60 0c22 -7 47 -26 60 -46c24 -38 17 -93 -16 -126c-41 -41 -106 -41 -147 0
c-55 55 -32 148 43 172zM157 348c-15 -6 -21 -9 -32 -19c-48 -43 -33 -122 27 -146c48 -19 104 10 117 60c11 41 -9 83 -49 102c-11 5 -16 5 -33 6c-16 0 -22 0 -30 -3zM72 134c-1 -3 -13 -32 -26 -65s-24 -60 -24 -61s13 0 28 2s28 4 29 4s11 -10 21 -23s19 -22 19 -22
s11 29 23 64c21 61 21 63 18 67c-7 8 -9 9 -28 3c-10 -3 -19 -5 -21 -4s-7 8 -11 18s-9 18 -9 18s-4 1 -9 2c-8 1 -8 1 -10 -3zM283 137c-6 -1 -8 -3 -15 -19c-4 -10 -9 -18 -11 -19s-11 1 -21 4c-19 6 -22 6 -29 -2c-3 -4 -2 -7 19 -66c12 -34 22 -64 22 -65s10 8 20 21
s19 23 20 23s16 -2 31 -4l27 -3l-1 4c-4 14 -51 126 -53 126h-9z" />
    <glyph glyph-name="property-1" unicode="&#xf887;" horiz-adv-x="492" 
d="M123 320c66 53 121 96 123 96s24 -17 49 -37l46 -37v23c0 12 2 23 3 24c3 4 79 5 83 1c2 -2 3 -18 3 -61v-58l25 -20c33 -26 37 -30 37 -35c0 -3 -6 -10 -17 -21c-19 -20 -23 -21 -36 -10l-8 8l-1 -122c0 -86 0 -122 -2 -124s-34 -3 -182 -3s-180 1 -182 3s-3 38 -3 124
v121l-9 -7c-13 -11 -17 -10 -36 10c-15 16 -19 20 -15 26c1 1 56 46 122 99zM130 305l-112 -90l9 -9c5 -5 10 -10 11 -10s48 37 103 82s102 82 104 82s43 -32 105 -82c56 -45 102 -82 103 -82s6 5 11 10l10 9l-113 91c-62 50 -113 90 -115 90s-54 -41 -116 -91zM358 352v-23
l28 -23l28 -22v46v46h-28h-28v-24zM161 273l-82 -66l-1 -124v-123h48h48v78c0 58 0 78 2 80c3 3 136 3 139 0c2 -2 3 -22 3 -80v-78h48h48l-1 123v124l-82 66c-45 37 -83 67 -85 67s-40 -30 -85 -67zM230 261c19 6 37 1 50 -13c18 -20 18 -44 0 -64c-19 -21 -47 -21 -67 -1
c-14 14 -19 29 -13 48c3 10 20 27 30 30zM233 245c-20 -9 -25 -35 -9 -51c22 -22 59 -3 53 29c-4 19 -26 30 -44 22zM190 32v-72h56h56v72v72h-56h-56v-72z" />
    <glyph glyph-name="keyboard-1" unicode="&#xf869;" horiz-adv-x="479" 
d="M161 437c3 4 8 4 11 1c1 -1 3 -6 4 -10s3 -10 7 -13l6 -6l125 -1l124 -1l9 -5c18 -9 32 -30 32 -50c0 -15 -6 -28 -17 -39c-17 -17 -18 -17 -108 -17c-54 0 -78 0 -84 -2c-16 -5 -31 -26 -31 -42v-4h113l113 -1l6 -7l7 -6v-138v-138l-7 -6l-6 -7h-226h-226l-6 7l-7 6v138
v138l7 6l6 7l105 1h104l2 10c2 19 15 38 34 48l10 5l84 1l84 1l8 5c12 8 18 18 18 34s-6 26 -18 34l-8 5l-125 1l-125 1l-8 5c-4 3 -9 8 -12 12c-6 8 -9 23 -5 27zM17 230c-3 -3 -3 -265 0 -268s441 -3 444 0s3 265 0 268s-441 3 -444 0zM57 198c3 3 41 3 44 0s3 -41 0 -44
s-41 -3 -44 0s-3 41 0 44zM137 198c3 3 41 3 44 0s3 -41 0 -44s-41 -3 -44 0s-3 41 0 44zM217 198c3 3 41 3 44 0s3 -41 0 -44s-41 -3 -44 0s-3 41 0 44zM297 198c3 3 41 3 44 0s3 -41 0 -44s-41 -3 -44 0c-2 2 -2 10 -2 22s0 20 2 22zM377 198c3 3 41 3 44 0s3 -41 0 -44
s-41 -3 -44 0c-2 2 -2 10 -2 22s0 20 2 22zM71 176v-8h8h8v8v8h-8h-8v-8zM151 176v-8h8h8v8v8h-8h-8v-8zM231 176v-8h8h8v8v8h-8h-8v-8zM311 176v-8h8h8v8v8h-8h-8v-8zM391 176v-8h8h8v8v8h-8h-8v-8zM57 118c2 2 10 2 22 2s20 0 22 -2c3 -3 3 -41 0 -44s-41 -3 -44 0
s-3 41 0 44zM137 118c2 2 10 2 22 2s20 0 22 -2c3 -3 3 -41 0 -44s-41 -3 -44 0s-3 41 0 44zM217 118c2 2 10 2 22 2s20 0 22 -2c3 -3 3 -41 0 -44s-41 -3 -44 0s-3 41 0 44zM297 118c2 2 10 2 22 2s20 0 22 -2c3 -3 3 -41 0 -44s-41 -3 -44 0c-2 2 -2 10 -2 22s0 20 2 22z
M377 118c2 2 10 2 22 2s20 0 22 -2c3 -3 3 -41 0 -44s-41 -3 -44 0c-2 2 -2 10 -2 22s0 20 2 22zM71 96v-8h8h8v8v8h-8h-8v-8zM151 96v-8h8h8v8v8h-8h-8v-8zM231 96v-8h8h8v8v8h-8h-8v-8zM311 96v-8h8h8v8v8h-8h-8v-8zM391 96v-8h8h8v8v8h-8h-8v-8zM57 38c2 2 10 2 22 2
s20 0 22 -2c3 -3 3 -41 0 -44s-41 -3 -44 0s-3 41 0 44zM137 38c3 3 281 3 284 0s3 -41 0 -44s-281 -3 -284 0s-3 41 0 44zM71 16v-8h8h8v8v8h-8h-8v-8zM151 16v-8h128h128v8v8h-128h-128v-8z" />
    <glyph glyph-name="like-hand-1" unicode="&#xf86c;" 
d="M262 420c19 10 43 1 53 -18c4 -8 5 -12 5 -29c0 -33 -8 -103 -13 -121c-1 -3 4 -4 79 -4c80 0 79 0 88 -5c19 -10 27 -33 18 -52c-4 -7 -10 -14 -20 -20l4 -10c10 -20 2 -40 -20 -54l4 -10c10 -20 2 -40 -20 -54l4 -10c9 -19 1 -42 -18 -52l-9 -5h-79l-79 1l-45 15
c-25 8 -50 14 -57 15l-13 2v-14c0 -10 -1 -15 -3 -17c-2 -1 -33 -6 -69 -10c-53 -6 -67 -8 -69 -6c-3 2 -3 21 -3 142c0 106 0 140 2 142c3 3 137 3 140 0c1 -1 2 -9 2 -15c0 -11 0 -11 4 -10c10 3 24 11 34 21c30 30 47 74 59 150c2 10 11 23 21 28zM271 406
c-10 -4 -13 -11 -16 -32c-12 -82 -45 -141 -89 -163c-8 -4 -16 -7 -18 -7c-4 0 -4 -4 -4 -90v-89l14 -2c10 -1 29 -5 60 -15l45 -15h77h78l6 6c14 14 7 36 -13 40c-9 2 -13 8 -10 13c2 3 6 3 18 4c13 1 16 2 21 7c14 14 7 36 -13 40c-9 2 -13 8 -10 13c2 3 6 3 18 4
c13 1 16 2 21 7c14 14 7 36 -13 40c-9 2 -13 8 -10 13c2 3 6 3 18 4c14 1 16 2 21 7c8 8 10 20 4 29c-3 4 -7 8 -10 9c-4 2 -26 3 -89 3c-71 0 -85 1 -87 3s-1 8 3 31c6 36 8 57 10 93c1 30 0 36 -9 44c-5 4 -17 6 -23 3zM16 105v-127h4c2 0 28 3 56 7l51 6l1 121v120h-56
h-56v-127zM61 59c-3 -3 -5 -7 -5 -11s2 -8 5 -11c10 -10 27 -3 27 11c0 8 -8 16 -16 16c-4 0 -8 -2 -11 -5z" />
    <glyph glyph-name="map-marker-1" unicode="&#xf873;" horiz-adv-x="466" 
d="M204 437c42 8 90 -4 123 -31c81 -65 76 -179 -13 -299c-7 -10 -13 -18 -13 -18s21 -1 47 -1c37 0 47 -1 49 -3c1 -2 18 -32 36 -69l33 -66l-5 -4c-5 -4 -10 -4 -229 -4c-221 0 -225 0 -229 4c-3 3 -3 5 -2 9c4 10 62 126 65 129s8 4 51 4h48l-13 17
c-49 65 -75 134 -72 189c1 25 5 39 16 62c21 42 62 72 108 81zM199 419c-49 -13 -86 -51 -99 -99c-4 -17 -4 -52 0 -72c13 -60 60 -137 118 -194l15 -15l17 18c60 64 96 123 112 183c4 16 5 24 5 45c0 23 0 28 -5 42c-14 42 -45 73 -86 88c-12 4 -18 5 -40 6
c-19 1 -29 0 -37 -2zM220 342c8 2 25 1 34 -3c10 -4 24 -18 29 -29c6 -12 6 -33 1 -45c-13 -29 -48 -42 -76 -28c-36 17 -43 64 -14 91c9 8 14 11 26 14zM216 323c-24 -11 -30 -43 -12 -63c8 -9 18 -13 31 -12c21 2 35 15 36 37c1 11 0 14 -5 22c-10 17 -32 24 -50 16z
M50 16c-15 -30 -27 -54 -27 -55s95 -1 210 -1h210l-28 55l-27 55h-51h-52l-24 -25c-17 -17 -26 -25 -29 -25s-12 8 -29 25l-24 25h-51h-51l-27 -54z" />
    <glyph glyph-name="print-1" unicode="&#xf885;" 
d="M99 422c3 3 296 3 299 0c2 -2 2 -19 2 -64v-62h46c33 0 46 0 48 -2c3 -3 3 -217 0 -220c-2 -2 -15 -2 -48 -2h-46v-54c0 -39 0 -54 -2 -56c-3 -3 -296 -3 -299 0c-2 2 -3 17 -3 56v54h-45c-33 0 -46 0 -48 2c-3 3 -3 217 0 220c2 2 15 2 48 2h45v62c0 45 1 62 3 64z
M112 352v-56h136h136v56v56h-136h-136v-56zM16 184v-96h40h40v38c0 27 1 38 3 40c3 3 296 3 299 0c2 -2 2 -13 2 -40v-38h40h40v96v96h-232h-232v-96zM63 246c7 3 19 1 26 -6c5 -5 6 -8 6 -16c0 -9 0 -10 -6 -16s-8 -7 -17 -7s-10 1 -16 7s-7 8 -7 16c0 10 5 18 14 22z
M66 229c-5 -6 3 -16 10 -12s4 15 -4 15c-2 0 -5 -1 -6 -3zM387 230c2 2 8 2 22 2c16 0 20 -1 22 -4s2 -5 0 -8s-6 -4 -22 -4c-20 -1 -25 1 -25 8c0 2 2 5 3 6zM112 64v-88h136h136v88v88h-136h-136v-88zM163 102c2 2 22 2 86 2c77 0 84 -1 86 -4s2 -5 0 -8s-9 -4 -86 -4
c-60 0 -84 0 -86 2c-3 3 -3 9 0 12zM163 38c-3 -3 -3 -9 0 -12c2 -2 26 -2 86 -2c77 0 84 1 86 4s2 5 0 8s-9 4 -86 4c-64 0 -84 0 -86 -2z" />
    <glyph glyph-name="ipad-1" unicode="&#xf867;" horiz-adv-x="366" 
d="M14 438c2 1 79 1 171 1h168l6 -7l7 -6v-234v-234l-7 -6l-6 -7h-170h-170l-6 7l-7 6v234v234l5 5c3 3 7 6 9 7zM17 422c-2 -2 -2 -10 -2 -24v-22h168h168v22c0 14 0 22 -2 24c-3 3 -329 3 -332 0zM15 208v-152h168h168v152v152h-168h-168v-152zM15 2c0 -27 0 -38 2 -40
c3 -3 329 -3 332 0c2 2 2 13 2 40v38h-168h-168v-38zM174 22c7 3 19 1 26 -6c5 -5 6 -8 6 -16c0 -9 -1 -10 -7 -16s-7 -7 -16 -7s-10 1 -16 7s-7 8 -7 16c0 10 5 18 14 22zM177 5c-5 -6 2 -16 9 -12s5 15 -3 15c-2 0 -5 -1 -6 -3z" />
    <glyph glyph-name="data-app-1" unicode="&#xf850;" 
d="M225 413c48 12 96 -15 84 -47c-4 -9 -7 -7 30 -24l26 -12l12 3c45 11 92 -12 86 -42c-1 -6 -1 -6 15 -14l17 -8v-92l1 -93l-5 -3c-2 -2 -58 -27 -123 -58c-105 -49 -119 -56 -124 -54c-11 4 -240 111 -242 113s-2 23 -2 95l1 92l16 8c16 8 16 8 15 14c-6 30 42 53 87 42
l12 -3l24 11c39 18 35 16 31 25c-8 20 9 40 39 47zM224 397c-12 -4 -24 -14 -24 -21s12 -17 23 -20c12 -4 37 -4 49 0c11 3 24 13 24 20c0 3 -3 7 -7 11c-13 12 -42 17 -65 10zM174 333l-27 -13l5 -6c10 -12 9 -28 -3 -39c-22 -21 -66 -25 -96 -8c-9 5 -9 5 -16 2
c-4 -2 -7 -4 -7 -5s49 -24 109 -52l109 -52l109 52c60 28 109 51 109 52s-3 3 -7 5c-7 3 -8 3 -17 -2c-18 -10 -41 -14 -63 -9c-36 8 -54 35 -36 56l5 6l-28 13c-26 12 -27 13 -33 11c-22 -9 -50 -10 -69 -3c-5 2 -11 4 -13 4s-16 -5 -31 -12zM72 317
c-12 -4 -24 -14 -24 -21c0 -6 11 -17 22 -20c22 -7 51 -4 65 7c13 10 10 22 -9 31c-14 7 -38 8 -54 3zM379 317c-27 -8 -35 -22 -19 -34c20 -15 64 -14 81 2c9 8 9 14 0 22c-12 11 -42 16 -62 10zM225 285c37 9 81 -7 86 -32c8 -42 -80 -61 -117 -26c-22 21 -6 49 31 58z
M224 269c-12 -4 -24 -14 -24 -21s12 -17 23 -20c5 -2 17 -3 25 -3c19 0 32 4 41 12s9 14 0 22c-13 12 -42 17 -65 10zM16 172v-79l108 -50c60 -28 110 -51 112 -52c3 -1 3 3 3 77v79l-110 51c-60 28 -111 52 -112 52s-1 -35 -1 -78zM385 207c-51 -24 -101 -47 -111 -52
l-18 -9v-79v-79l39 19c22 10 72 33 112 52l73 34v79c0 43 -1 78 -2 78s-42 -19 -93 -43z" />
    <glyph glyph-name="mouse-1" unicode="&#xf879;" horiz-adv-x="495" 
d="M232 438c64 12 124 -31 133 -94l3 -16h9c53 0 104 -42 115 -95c4 -20 4 -174 0 -194c-9 -45 -47 -83 -92 -92c-18 -4 -64 -4 -82 0c-45 9 -83 47 -92 92c-4 20 -4 174 0 194c11 53 62 95 116 95c11 0 10 0 7 18c-10 53 -66 88 -117 75c-32 -8 -55 -30 -68 -62
c-4 -9 -4 -15 -5 -62l-1 -52l-7 -15c-9 -18 -21 -30 -40 -39c-12 -6 -15 -6 -32 -6s-20 0 -32 6c-19 9 -31 21 -40 39l-7 15v88c0 82 1 88 4 90s3 2 6 0s4 -9 5 -89c1 -85 2 -87 6 -96c7 -14 14 -23 28 -30c12 -6 14 -7 30 -7c14 0 18 0 27 5c15 8 21 14 29 28l7 13l1 52
c1 42 2 54 5 62c11 31 31 54 58 67c9 4 20 9 26 10zM318 309c-36 -9 -67 -40 -76 -77c-2 -7 -3 -20 -3 -30v-18h40h40v19c1 22 6 30 19 39c7 4 10 5 21 5c16 0 26 -5 34 -17c5 -7 5 -11 6 -27v-19h40h40v18c0 33 -10 58 -31 79c-14 14 -31 24 -49 28c-17 4 -65 4 -81 0z
M350 230c-2 -1 -6 -4 -9 -7c-5 -5 -5 -6 -5 -31v-26l7 -6c6 -6 7 -7 16 -7s10 1 16 7l7 6v26v26l-6 6c-7 7 -19 9 -26 6zM239 110c0 -64 2 -74 13 -95c13 -26 42 -47 71 -53c16 -3 61 -3 76 1c37 9 68 40 77 77c2 10 3 26 3 70v58h-41c-37 0 -41 0 -41 -3
c0 -5 -10 -19 -17 -23c-8 -5 -22 -7 -32 -4s-24 16 -26 24l-2 6h-40h-41v-58z" />
    <glyph glyph-name="sand-clock-1" unicode="&#xf891;" horiz-adv-x="320" 
d="M3 438c2 2 38 2 158 2c146 0 156 -1 158 -4c4 -6 -1 -11 -13 -12h-10v-59c0 -66 -2 -77 -13 -100c-10 -20 -24 -34 -54 -56c-15 -10 -27 -20 -27 -20s12 -9 26 -19c40 -28 55 -48 64 -81c3 -14 4 -22 4 -72v-57h10c12 -1 17 -6 13 -12c-2 -3 -12 -3 -159 -3
s-157 0 -159 3c-4 6 1 11 13 12h10v57c0 50 1 58 4 72c9 33 24 53 64 81c14 10 26 19 26 19s-12 10 -27 20c-40 28 -55 47 -63 80c-4 14 -4 22 -4 75v60h-9c-5 0 -11 1 -12 2c-3 3 -3 9 0 12zM40 366c0 -45 1 -62 3 -72c3 -13 12 -31 19 -40c4 -4 5 -4 14 -2
c17 4 42 3 76 -4c38 -8 69 -9 89 -3c10 3 14 5 19 12c8 11 15 27 18 41c1 6 2 33 2 68v58h-120h-120v-58zM92 238c-5 0 -10 -1 -10 -2s11 -9 25 -19s26 -19 27 -21s5 -7 10 -10s9 -8 11 -11l3 -5l13 12c18 17 21 20 37 31l14 10l-21 2c-12 1 -33 3 -46 6c-26 6 -48 8 -63 7z
M182 173c-3 -3 -8 -10 -11 -16s-6 -11 -7 -12c-4 -3 -10 2 -17 13c-8 12 -15 19 -19 17c-14 -8 -55 -39 -61 -46c-11 -12 -20 -29 -24 -45s-4 -66 0 -66c9 0 34 16 63 40c32 26 39 30 54 30c13 0 24 -6 49 -26c35 -29 60 -44 69 -44c4 0 3 50 -1 66c-4 15 -12 33 -23 45
c-7 7 -58 45 -65 48c-1 0 -4 -1 -7 -4zM148 69c-3 -2 -17 -11 -30 -22c-28 -23 -51 -38 -66 -43l-11 -4v-20l-1 -20h120h120v20l-1 20l-12 5c-16 6 -34 18 -65 43c-14 11 -28 21 -31 22c-7 3 -17 2 -23 -1z" />
    <glyph glyph-name="at-sign--1" unicode="&#xf845;" horiz-adv-x="495" 
d="M206 437c89 16 184 -22 239 -95c35 -46 53 -106 50 -162c-1 -25 -5 -39 -14 -59c-9 -19 -22 -34 -39 -42c-12 -6 -15 -6 -30 -6c-14 0 -19 1 -28 5c-19 9 -32 25 -37 44l-3 11l-6 -9c-21 -31 -61 -52 -98 -52c-65 0 -120 55 -120 120c0 75 71 133 145 117
c28 -6 60 -28 73 -49l5 -7l1 28c1 24 1 28 4 30s4 2 7 0s4 -9 5 -93c1 -100 1 -98 14 -113c10 -12 20 -16 38 -16c13 0 16 1 25 6c25 14 40 43 42 87c5 94 -51 185 -139 223c-59 25 -125 25 -184 0c-110 -47 -166 -172 -128 -285c27 -80 90 -136 174 -155c18 -4 70 -5 87 -1
c21 4 39 11 55 18c17 8 23 7 23 -2c0 -6 -13 -14 -41 -23c-116 -38 -242 13 -298 121c-42 82 -36 178 16 255c13 20 44 52 63 64c30 20 66 34 99 40zM215 293c-36 -9 -67 -40 -76 -77c-18 -75 50 -143 125 -125c37 9 68 40 77 77c8 35 -2 71 -28 97s-63 37 -98 28z" />
    <glyph glyph-name="currency-1" unicode="&#xf84e;" 
d="M3 430c3 3 488 3 491 0s3 -297 0 -300c-2 -2 -12 -2 -32 -2h-30v-70c0 -79 1 -77 -14 -87c-37 -25 -142 -25 -180 0c-14 9 -14 9 -14 87v70h-109c-83 0 -110 0 -112 2c-3 3 -3 297 0 300zM16 384v-32l6 1c28 6 51 29 57 57l1 6h-32h-32v-32zM95 410
c-9 -41 -32 -64 -73 -73l-6 -1v-56c0 -62 -1 -56 14 -59c27 -5 58 -36 63 -63c3 -15 -4 -14 67 -14h64v22c0 25 2 32 12 38l6 3l-9 3c-23 6 -40 20 -50 41c-5 10 -6 15 -6 29s1 19 6 29c26 56 105 56 131 0c5 -10 5 -15 5 -29s0 -19 -5 -29c-3 -7 -10 -16 -14 -20l-8 -8h37
c41 0 62 -4 83 -15c17 -9 20 -14 20 -41v-23h24h24v96c0 107 2 96 -14 99c-27 5 -58 36 -63 63c-1 4 -1 8 -2 10c-1 3 -10 4 -153 4h-152zM417 410c6 -28 30 -51 58 -57l5 -1v32v32h-32h-32zM229 333c-14 -4 -30 -21 -34 -35c-7 -23 -2 -41 14 -57c23 -23 55 -23 78 0
s23 55 0 78c-16 16 -36 21 -58 14zM83 286c2 2 8 2 22 2c16 0 20 -1 22 -4s2 -5 0 -8s-6 -4 -22 -4c-20 -1 -25 1 -25 8c0 2 2 5 3 6zM371 286c2 2 8 2 22 2c16 0 20 -1 22 -4s2 -5 0 -8s-6 -4 -22 -4c-20 -1 -25 1 -25 8c0 2 2 5 3 6zM16 176v-32h32h32l-1 6
c-6 28 -29 51 -57 57l-6 1v-32zM299 207c-28 -4 -50 -12 -56 -19c-4 -4 -4 -4 0 -8c11 -12 42 -19 85 -19s74 7 85 19c4 4 3 4 -1 9c-10 11 -38 17 -77 18h-36zM240 141c0 -20 1 -22 5 -26c12 -11 41 -18 83 -18s72 7 84 18c4 4 4 6 4 26c0 17 0 21 -2 19
c-9 -8 -55 -16 -86 -16s-76 8 -85 16c-2 2 -3 -2 -3 -19zM240 77c0 -20 1 -22 5 -26c12 -11 41 -18 83 -18s72 7 84 18c4 4 4 6 4 26c0 17 0 21 -2 19c-9 -8 -55 -16 -86 -16s-76 8 -85 16c-2 2 -3 -2 -3 -19zM240 13c0 -20 1 -22 5 -26c12 -11 41 -18 83 -18s72 7 84 18
c4 4 4 6 4 26c0 17 0 21 -2 19c-9 -8 -55 -16 -86 -16s-76 8 -85 16c-2 2 -3 -2 -3 -19z" />
    <glyph glyph-name="data-content-1" unicode="&#xf851;" 
d="M182 416c26 8 48 16 49 16c2 0 100 -31 103 -33c1 -1 2 -29 2 -62v-61l-5 -3c-2 -2 -25 -10 -51 -18l-48 -16l-47 16c-26 8 -51 16 -53 18l-4 3v61c0 56 0 62 3 63c2 1 25 8 51 16zM196 404l-35 -11l36 -12l36 -12l35 12l35 12l-36 11c-20 6 -36 12 -36 12
s-16 -6 -35 -12zM144 333v-48l39 -13c21 -7 39 -12 40 -12s1 22 1 48v47l-40 13l-40 14v-49zM279 368l-39 -13v-47c0 -26 0 -48 1 -48s19 5 40 12l39 13v48c0 27 -1 49 -1 49s-18 -7 -40 -14zM55 207c29 9 54 17 57 17s28 -7 57 -17c46 -15 53 -18 54 -22c1 -2 2 -5 3 -5
s30 9 64 21l63 21l69 -23c38 -13 70 -25 71 -26c2 -2 3 -21 3 -85c0 -46 0 -85 -1 -87s-25 -11 -72 -26l-71 -23l-71 23c-47 15 -71 24 -72 26s-1 13 -1 24s-1 21 -1 21s-21 -7 -47 -16l-47 -15l-54 17c-29 10 -54 19 -56 20c-2 2 -3 13 -3 68c0 36 1 66 2 67s24 11 53 20z
M72 195c-21 -7 -36 -13 -34 -14s18 -6 38 -13l36 -12l35 12c20 7 37 12 39 13c3 1 -70 27 -75 27c-1 0 -19 -6 -39 -13zM295 186c-28 -10 -51 -17 -51 -18s24 -9 54 -19l54 -17l54 17c30 10 54 18 54 19c0 2 -105 36 -109 36c-2 0 -28 -8 -56 -18zM16 117l1 -54l44 -14
l43 -15v54l-1 55l-41 13c-23 8 -43 14 -44 14c-2 0 -2 -11 -2 -53zM162 156l-41 -13l-1 -54v-55l43 15l44 14l1 54c0 42 0 53 -2 53c-1 0 -21 -7 -44 -14zM224 83v-72l59 -20c32 -11 59 -19 60 -19s1 33 1 73v72l-59 20c-32 11 -59 19 -60 19s-1 -33 -1 -73zM417 136
l-57 -19v-72c0 -40 0 -73 1 -73s28 8 60 19l59 20v72c0 57 -1 73 -3 73c-1 0 -28 -9 -60 -20z" />
    <glyph glyph-name="play-movie-1" unicode="&#xf883;" horiz-adv-x="494" 
d="M21 395l9 5h217h217l9 -5c5 -3 12 -8 15 -13l6 -8v-182v-182l-6 -8c-3 -5 -10 -10 -15 -13l-9 -5h-217h-217l-9 5c-5 3 -12 8 -15 13l-6 8v182v182l6 8c3 5 10 10 15 13zM30 382c-2 -1 -6 -4 -9 -7c-5 -5 -5 -6 -6 -38v-33h26h27l40 40l40 40h-57c-31 0 -59 -1 -61 -2z
M130 344l-40 -40h53h53l40 40l40 40h-53h-53zM258 344l-40 -40h53h53l40 40l40 40h-53h-53zM386 344l-40 -40h67h66v33l-1 33l-7 6c-6 6 -7 7 -26 8h-19zM15 151l1 -137l7 -6l6 -7h218h218l6 7l7 6l1 137v137h-232h-232v-137zM177 237c1 2 4 3 6 3s40 -19 85 -42
c75 -38 82 -41 82 -46s-6 -9 -83 -47c-69 -35 -84 -42 -87 -40s-5 9 -5 86c0 60 0 84 2 86zM191 152c0 -36 0 -66 1 -66c2 0 131 65 131 66s-129 66 -131 66c-1 0 -1 -30 -1 -66z" />
    <glyph glyph-name="detective-1" unicode="&#xf854;" horiz-adv-x="497" 
d="M177 436c5 5 9 5 30 -5c24 -11 40 -17 46 -16c3 1 17 6 31 13c31 15 34 15 45 -2c4 -6 14 -28 24 -49l18 -38l22 -13c12 -7 35 -19 50 -26s29 -14 32 -15c6 -3 8 -10 4 -13c-2 -2 -60 -12 -87 -15l-11 -1l4 -5c5 -7 8 -26 7 -38c-2 -17 -17 -39 -28 -42
c-4 -1 -4 -4 -6 -13c-5 -27 -21 -57 -41 -76c-12 -11 -18 -14 -23 -10s-3 7 12 22c21 21 34 47 37 75c1 12 2 13 13 16c8 2 16 14 19 25s1 26 -4 32c-3 4 -4 4 -10 -9c-12 -24 -30 -34 -56 -32c-8 1 -18 3 -23 5c-14 7 -22 17 -26 36c-1 5 -2 6 -7 6c-6 0 -7 0 -9 -10
c-3 -13 -9 -23 -19 -29c-16 -10 -43 -11 -59 -3c-10 5 -23 19 -28 31c-2 5 -5 9 -6 9c-7 0 -11 -26 -6 -42c3 -10 11 -20 18 -20c6 0 9 -4 10 -17c3 -24 20 -54 42 -74c13 -12 17 -19 10 -22c-6 -2 -9 -1 -23 12c-23 22 -39 49 -44 75c-1 7 -4 12 -5 12c-5 0 -15 11 -20 21
c-5 9 -6 12 -6 30c0 17 1 21 5 27l4 8l-4 1c-2 1 -19 3 -35 5c-53 7 -59 10 -56 19c1 2 26 15 56 30l54 26l16 35c17 38 27 58 33 64zM291 414c-11 -5 -25 -11 -31 -13c-14 -4 -24 -1 -52 12c-20 9 -21 10 -24 6c-3 -5 -32 -68 -34 -74c-1 -4 0 -5 24 -9c43 -7 70 -9 102 -6
c28 2 73 9 75 11s-31 71 -37 78l-4 5zM95 304c-23 -12 -41 -22 -40 -23c13 -4 95 -12 150 -15c69 -3 149 1 217 12l22 3l-21 10c-12 6 -30 16 -41 23l-21 12l-14 -3c-64 -13 -116 -14 -179 -2c-15 3 -27 5 -28 5s-22 -10 -45 -22zM146 249c3 -8 9 -18 14 -22
c20 -18 56 -12 63 11c1 4 3 8 2 9s-16 2 -35 3s-36 2 -39 3c-5 1 -6 0 -5 -4zM309 250c-12 -1 -24 -2 -29 -2h-8l2 -8c3 -11 11 -19 22 -22c18 -5 31 -2 42 9c6 6 13 19 13 23c0 2 -9 2 -42 0zM132 118c5 6 13 1 13 -7c0 -6 14 -24 28 -37c7 -6 27 -22 45 -36l32 -26l15 15
c8 8 27 25 42 39c27 25 38 36 46 48s11 9 31 -31l18 -37l13 -4c35 -11 61 -32 73 -58c8 -16 11 -32 7 -37c-2 -3 -33 -3 -246 -3c-278 1 -250 -1 -246 19c8 38 37 68 80 80l13 4l17 34c9 19 18 36 19 37zM357 91c-1 -2 -23 -22 -48 -45s-45 -43 -44 -44c8 -8 52 -42 55 -42
c2 0 5 6 10 22c4 12 9 23 10 24s13 5 27 8s27 7 28 7c3 1 -33 73 -36 73c-1 0 -1 -1 -2 -3zM118 56c-11 -22 -16 -34 -14 -35c1 0 13 -4 27 -7s26 -8 27 -9s5 -11 9 -22s7 -21 8 -22s27 -1 58 -1l57 1l-32 25c-71 55 -100 78 -111 91l-12 14zM74 24c-23 -9 -40 -25 -50 -46
c-9 -19 -15 -18 64 -18c38 0 69 0 69 1s-2 9 -5 17l-5 15l-31 8c-17 4 -32 8 -33 10c-2 2 -2 5 0 10l2 6s-6 -1 -11 -3zM413 25c0 -1 1 -3 2 -5c4 -8 0 -11 -33 -19l-32 -8l-5 -17l-6 -16h70c79 0 74 -2 65 17c-7 14 -23 30 -38 38c-14 7 -23 12 -23 10z" />
    <glyph glyph-name="funnel-1" unicode="&#xf860;" 
d="M180 438c128 9 272 -11 305 -42c11 -10 11 -12 11 -53c0 -42 -2 -50 -11 -60c-3 -4 -44 -41 -91 -83s-86 -78 -87 -80s-2 -26 -3 -57l-1 -55l-8 -11c-14 -20 -54 -49 -72 -52c-10 -2 -21 2 -26 10c-4 6 -4 7 -5 80l-1 74l-6 8c-3 4 -34 33 -69 65
c-104 94 -107 97 -112 106s-5 10 -4 53l1 45l8 8c21 21 86 38 171 44zM193 423c-70 -5 -130 -16 -158 -30c-19 -9 -23 -16 -15 -24c16 -15 66 -29 132 -36c43 -5 149 -5 192 0c78 9 136 27 136 43s-59 35 -134 43c-28 3 -127 6 -153 4zM16 325c0 -20 0 -26 3 -31
c2 -3 34 -34 71 -67c88 -79 113 -103 116 -114c2 -6 2 -31 2 -77c0 -63 1 -68 4 -72s4 -4 11 -2c16 5 48 29 60 45c4 6 4 9 5 60c1 40 2 55 4 59c1 3 42 42 92 86c60 54 91 83 93 87c2 6 4 51 2 51l-14 -6c-46 -22 -140 -34 -240 -31c-88 2 -156 13 -195 31
c-7 3 -13 6 -13 6s-1 -11 -1 -25z" />
    <glyph glyph-name="database-1" unicode="&#xf852;" horiz-adv-x="432" 
d="M173 439c6 0 23 1 39 1c106 1 199 -27 216 -65c3 -8 4 -18 4 -183c0 -194 0 -182 -14 -197c-20 -21 -61 -36 -121 -45c-38 -6 -119 -6 -156 -1c-60 9 -102 23 -124 43c-19 17 -17 1 -17 200c0 198 -2 183 16 199c25 23 90 43 157 48zM166 422c-80 -8 -143 -31 -149 -57
c-3 -14 7 -26 34 -39c84 -40 247 -40 330 0c36 18 44 34 24 53c-19 18 -65 34 -121 41c-23 3 -94 4 -118 2zM16 285c0 -50 0 -50 20 -63c74 -50 286 -50 360 0c20 13 20 13 20 63v43l-7 -5c-10 -8 -38 -20 -58 -26c-105 -31 -271 -18 -329 26l-6 5v-43zM16 173
c0 -49 0 -50 20 -63c74 -50 286 -50 360 0c20 13 20 14 20 63v43l-12 -8c-79 -53 -296 -53 -377 0l-11 8v-43zM16 61c0 -49 0 -50 20 -63c74 -50 286 -50 360 0c20 13 20 14 20 63v43l-12 -8c-79 -53 -296 -53 -377 0l-11 8v-43z" />
    <glyph glyph-name="luxury-1" unicode="&#xf870;" 
d="M64 379l4 5h181l180 -1l33 -54c18 -30 34 -55 34 -57c0 -5 -244 -272 -248 -272s-248 267 -248 272c0 2 53 91 64 107zM90 364c5 -9 53 -76 55 -77c1 0 20 17 43 40l41 41h-71c-67 0 -70 -1 -68 -4zM308 327c23 -23 42 -40 43 -40c2 1 50 68 55 77c2 3 -1 4 -68 4h-71z
M205 322l-42 -42h85h85l-42 42c-23 23 -42 42 -43 42s-20 -19 -43 -42zM47 320l-25 -40h53h53l-3 6c-13 19 -52 74 -53 74s-12 -18 -25 -40zM399 326c-13 -19 -26 -37 -28 -40l-3 -6h53h53l-25 40c-13 22 -24 40 -25 40s-12 -15 -25 -34zM28 263c0 -1 173 -193 188 -208
l8 -8l-15 38c-8 21 -28 70 -43 108l-27 70l-56 1c-30 0 -55 0 -55 -1zM156 262c28 -72 91 -230 92 -230s64 158 92 230c0 1 -41 2 -92 2s-92 -1 -92 -2zM355 257c-2 -4 -21 -52 -42 -107s-39 -100 -40 -101s2 2 6 6c12 12 189 207 189 208s-25 1 -55 1h-55l-3 -7z" />
    <glyph glyph-name="male-user-1" unicode="&#xf872;" 
d="M211 437c47 7 98 0 142 -21c28 -13 48 -27 70 -49s36 -42 49 -70c45 -94 25 -206 -49 -280c-22 -22 -42 -36 -70 -49c-79 -38 -173 -30 -247 20c-20 14 -48 43 -62 63c-13 19 -28 51 -34 71c-25 89 -1 181 63 245c22 22 41 36 69 49c22 11 44 17 69 21zM216 422
c-32 -4 -79 -23 -105 -43c-91 -69 -120 -187 -71 -288c14 -28 26 -47 50 -69l7 -6l8 3c4 2 16 5 25 7c29 7 42 12 50 20c7 6 8 8 8 15c0 6 -2 9 -5 12c-6 5 -20 29 -24 39c-2 5 -7 12 -12 17c-10 10 -15 22 -17 44c-1 18 2 29 10 36l6 5l-2 17c-1 9 -2 25 -2 35
c1 16 1 22 6 31c6 11 17 21 24 21c2 0 11 4 20 9c43 23 91 24 124 3c19 -12 32 -29 37 -52c4 -16 4 -27 0 -48c-3 -16 -4 -17 0 -20c9 -7 12 -14 12 -33c0 -14 -2 -21 -5 -30c-5 -12 -13 -23 -17 -23c-1 0 -4 -5 -6 -10c-4 -12 -14 -27 -23 -38c-6 -8 -7 -9 -6 -17
c2 -15 17 -23 54 -31c10 -2 22 -6 27 -8l9 -4l7 6c27 24 52 63 64 100c26 83 4 172 -58 234c-51 51 -122 75 -195 66zM245 328c-17 -3 -28 -6 -45 -15c-9 -5 -19 -9 -22 -10c-7 -2 -15 -11 -18 -21c-3 -11 -3 -36 1 -57c2 -10 3 -20 2 -22s-4 -3 -7 -4
c-10 -2 -14 -18 -8 -40c4 -14 8 -19 14 -21c4 -2 6 -5 10 -15c5 -14 17 -34 26 -42c5 -5 6 -7 6 -17c0 -20 -10 -33 -33 -43c-4 -2 -19 -6 -32 -9s-24 -6 -25 -7c-2 -2 8 -9 31 -20c45 -22 89 -29 137 -22c33 5 69 19 94 36c9 6 9 5 4 7c-3 1 -14 4 -26 7
c-27 7 -44 15 -53 25c-7 9 -9 15 -9 29c0 7 1 10 9 19c10 12 17 23 22 37c4 12 6 15 11 15s9 8 13 24c5 20 2 31 -7 36c-11 5 -11 6 -6 22c9 29 6 61 -8 80c-15 21 -50 33 -81 28z" />
    <glyph glyph-name="flag-1" unicode="&#xf85e;" horiz-adv-x="400" 
d="M43 437c17 3 45 4 67 1c9 -1 44 -7 76 -14c76 -15 86 -17 118 -17c30 0 44 2 71 11c15 5 20 6 22 4c3 -2 3 -19 3 -126c0 -96 -1 -124 -3 -126c-4 -3 -22 -10 -38 -14c-18 -5 -70 -7 -97 -4c-11 1 -41 7 -68 12c-64 13 -82 15 -105 17c-21 1 -45 -1 -62 -7l-10 -3
l-1 -112c-1 -103 -2 -112 -5 -114s-4 -2 -7 0s-4 16 -4 242c0 183 0 240 2 242s5 3 9 2s9 0 12 1s12 4 20 5zM44 421c-7 -1 -17 -4 -21 -6l-7 -3v-112c0 -106 0 -112 3 -111c14 5 32 8 58 8c32 0 40 -1 114 -16c65 -13 80 -15 114 -15c27 0 44 3 66 10l13 4v112
c0 106 -1 112 -4 111c-12 -5 -34 -9 -52 -11c-34 -4 -61 -1 -144 16c-84 17 -109 19 -140 13z" />
    <glyph glyph-name="firewall-1" unicode="&#xf85d;" 
d="M275 438c1 1 3 2 5 2c5 0 56 -37 80 -58c47 -42 73 -98 81 -179l2 -24l5 17c4 15 5 21 5 51c0 22 -1 38 -3 46c-2 10 -2 13 0 16c4 5 11 3 16 -6c17 -30 30 -93 30 -140c0 -67 -45 -123 -110 -136l-18 -4v-37c0 -26 0 -38 -2 -40c-3 -3 -360 -3 -363 0s-3 249 0 252
c2 2 30 2 115 2c101 0 112 0 112 3c0 5 13 32 23 48c20 33 20 43 -3 71c-10 12 -11 17 -5 21c4 3 10 0 24 -13c15 -14 30 -37 36 -56c3 -9 5 -18 5 -21c0 -10 4 -6 8 9c10 36 10 64 1 96c-7 24 -15 38 -32 56c-15 15 -16 20 -12 24zM328 381c13 -31 17 -77 8 -113
c-5 -21 -13 -44 -21 -58c-3 -5 -5 -9 -5 -9s12 -1 27 -1c18 0 27 0 29 -2s2 -23 2 -81v-77l9 1c28 5 51 17 70 37c33 35 41 79 27 149l-3 12l-2 -19c-3 -24 -11 -48 -22 -70c-13 -25 -19 -30 -25 -23c-2 3 -2 5 0 13c4 15 5 50 1 76c-7 49 -21 89 -42 119
c-9 12 -45 49 -53 53c-4 2 -4 2 0 -7zM283 276c-1 -4 -7 -18 -15 -31c-12 -20 -22 -40 -22 -44c0 -1 10 -1 22 -1h22l2 6c6 17 4 51 -5 71l-2 6zM16 152v-32h40h40v32v32h-40h-40v-32zM112 152v-32h72h72v32v32h-72h-72v-32zM272 152v-32h40h40v32v32h-40h-40v-32zM16 72
v-32h80h80v32v32h-80h-80v-32zM192 72v-32h80h80v32v32h-80h-80v-32zM16 -8v-32h40h40v32v32h-40h-40v-32zM112 -8v-32h72h72v32v32h-72h-72v-32zM272 -8v-32h40h40v32v32h-40h-40v-32z" />
    <glyph glyph-name="social-1" unicode="&#xf899;" 
d="M69 421c22 7 42 2 58 -14c21 -21 23 -53 3 -76c-5 -5 -8 -10 -8 -10c31 -19 45 -38 51 -71c3 -18 3 -29 0 -32s-168 -3 -171 0s-2 14 1 32c6 33 20 52 51 71c0 0 -3 5 -8 10c-13 15 -17 34 -11 55c4 14 20 31 34 35zM389 421c22 7 42 2 58 -14c21 -21 23 -53 3 -76
c-5 -5 -8 -10 -8 -10c31 -19 45 -38 51 -71c3 -18 3 -29 0 -32s-168 -3 -171 0s-2 14 1 32c6 33 20 52 51 71c0 0 -3 5 -8 10c-13 15 -17 34 -11 55c4 14 20 31 34 35zM74 406c-10 -3 -21 -16 -24 -26c-5 -18 2 -37 17 -46c11 -7 31 -7 42 0c12 8 18 18 18 34
c0 15 -5 25 -17 33c-9 6 -26 8 -36 5zM394 406c-10 -3 -21 -16 -24 -26c-5 -18 2 -37 17 -46c11 -7 31 -7 42 0c12 8 18 18 18 34c0 15 -5 25 -17 33c-9 6 -26 8 -36 5zM178 342c2 2 20 2 71 2c62 0 68 -1 70 -4s2 -5 0 -8s-8 -4 -70 -4c-48 0 -68 0 -70 2c-3 3 -4 9 -1 12z
M69 309c-12 -4 -22 -10 -31 -20c-12 -12 -18 -28 -21 -49l-1 -8h72h72l-1 8c-7 43 -32 69 -68 71c-8 0 -17 0 -22 -2zM389 309c-12 -4 -22 -10 -31 -20c-12 -12 -18 -28 -21 -49l-1 -8h72h72l-1 8c-7 43 -32 69 -68 71c-8 0 -17 0 -22 -2zM228 197c21 7 49 0 65 -16
c13 -13 18 -25 18 -45c0 -16 -1 -18 -7 -30c-4 -7 -10 -15 -14 -18s-6 -6 -6 -6s6 -4 13 -7c25 -12 47 -42 53 -71c3 -14 2 -39 -1 -42s-200 -3 -203 0s-3 28 0 42c1 6 5 18 9 26c11 23 28 37 57 51l-9 9c-34 34 -21 90 25 107zM82 182c1 1 4 2 6 2c4 0 72 -68 72 -72
s-4 -8 -8 -8s-72 68 -72 72c0 2 1 5 2 6zM232 181c-10 -3 -27 -20 -30 -30c-6 -19 -1 -34 13 -48c20 -20 46 -20 66 0s20 46 0 66c-14 14 -30 18 -49 12zM370 149c19 19 36 35 38 35c4 0 8 -4 8 -8s-68 -72 -72 -72s-8 4 -8 8c0 2 15 18 34 37zM226 69c-6 -2 -15 -5 -20 -8
c-12 -6 -30 -25 -36 -37c-6 -11 -10 -28 -10 -39v-9h88h88v9c0 11 -4 28 -10 39c-6 12 -24 31 -36 37c-20 11 -43 14 -64 8z" />
    <glyph glyph-name="video-1" unicode="&#xf8a3;" 
d="M26 326c4 1 61 1 145 1h138l7 -4c4 -2 10 -8 13 -13c6 -8 5 -9 6 -40c0 -17 1 -32 2 -32s31 17 67 37c63 35 66 37 76 37c6 0 12 -1 13 -2c3 -3 3 -233 0 -236c-1 -1 -7 -2 -13 -2c-10 0 -14 2 -77 38l-66 38l-1 -33c-1 -32 -1 -33 -7 -41c-3 -5 -9 -11 -13 -13l-7 -4
h-141h-141l-9 6c-5 3 -11 9 -13 13c-4 7 -4 8 -5 112c0 71 1 107 2 112c3 10 15 23 24 26zM31 310c-2 -1 -6 -4 -9 -7l-5 -5v-106v-106l6 -6l7 -7h138h138l6 7l7 6v40c1 37 1 40 5 42c5 3 11 0 89 -45c34 -19 62 -35 64 -35s3 16 3 104c0 89 -1 104 -3 104s-35 -18 -74 -40
s-73 -40 -75 -40c-7 0 -8 5 -9 44v38l-7 6l-6 7h-136c-75 0 -137 0 -139 -1z" />
    <glyph glyph-name="tv-screen-1" unicode="&#xf8a1;" 
d="M3 402c3 3 488 3 491 0s3 -313 0 -316c-2 -2 -31 -2 -120 -2h-118v-24v-23l19 -2c46 -3 93 -17 130 -37c8 -4 10 -6 10 -10c0 -10 -5 -10 -28 1c-47 22 -86 31 -139 31s-91 -9 -138 -31c-23 -11 -29 -11 -29 -1c0 4 2 6 10 10c37 20 85 34 131 37l18 2v23v24h-117
c-89 0 -118 0 -120 2c-3 3 -3 313 0 316zM16 244v-144h232h232v144v144h-232h-232v-144z" />
    <glyph glyph-name="24h-support-1" unicode="&#xf842;" horiz-adv-x="464" 
d="M201 439c13 2 68 -1 80 -4c28 -8 52 -23 73 -45c29 -31 43 -65 45 -114l2 -28h19c17 -1 20 -1 27 -6c5 -3 10 -9 13 -14c4 -8 4 -12 4 -60s0 -52 -4 -60c-3 -5 -8 -11 -13 -14c-7 -5 -10 -5 -27 -6h-19l-3 -19c-8 -48 -37 -79 -82 -90c-12 -3 -14 -4 -15 -9
c-2 -8 -15 -21 -25 -24c-5 -1 -19 -2 -33 -2c-23 1 -25 2 -33 7c-13 9 -17 17 -17 33s6 26 18 34c8 5 8 5 37 5h30l8 -6c5 -3 11 -10 14 -15l4 -10l9 2c25 5 49 25 59 46c6 12 12 38 12 51c0 5 1 10 2 11c2 2 11 2 26 2h22l7 7l7 7v50v50l-7 7l-7 7h-22c-15 0 -24 0 -26 2
s-2 11 -2 27c0 28 -2 44 -9 65c-15 44 -48 77 -93 92c-14 5 -18 5 -50 5s-36 0 -50 -5c-44 -15 -79 -48 -93 -92c-7 -21 -9 -37 -9 -65c0 -16 0 -25 -2 -27s-11 -2 -26 -2h-22l-7 -7l-7 -7v-50v-50l6 -6c5 -6 6 -7 22 -8c13 -1 17 -1 19 -4s2 -5 0 -8s-5 -3 -20 -3
c-16 0 -19 0 -26 5c-5 3 -10 9 -13 14c-4 8 -4 12 -4 60s0 52 4 60c3 5 8 11 13 14c7 5 10 5 27 6h19l2 28c2 49 16 84 46 116c24 25 55 41 90 47zM138 262c3 1 10 1 17 1c20 -1 36 -11 46 -29c5 -9 6 -13 6 -26c0 -21 -3 -26 -39 -68l-30 -35l41 -1c36 -1 42 -1 44 -4
s2 -5 0 -8s-7 -4 -54 -4c-53 -1 -57 1 -57 8c0 2 17 23 38 48c28 33 38 47 40 53c5 18 -3 38 -20 46c-14 7 -23 7 -38 -1c-10 -5 -13 -7 -16 -5c-4 3 -5 8 -2 12c3 3 16 10 24 13zM289 260c3 5 11 5 14 0c2 -3 0 -8 -36 -92l-7 -16h30h30v22c0 19 1 23 4 25s5 2 8 0
s4 -6 4 -25v-22h14c11 0 15 -1 17 -4s2 -5 0 -8s-6 -4 -17 -4h-14v-22c0 -19 -1 -23 -4 -25s-5 -2 -8 0s-4 6 -4 25v22h-38c-33 0 -39 1 -41 4s3 15 22 59c13 31 24 58 26 61zM223 6c-9 -4 -14 -12 -14 -22c0 -8 1 -10 7 -16l6 -7h26h26l6 7c6 6 7 7 7 16s-1 10 -7 16l-6 7
h-24c-13 0 -25 0 -27 -1z" />
    <glyph glyph-name="heart-1" unicode="&#xf864;" 
d="M100 413c30 7 68 0 97 -16c15 -9 38 -29 45 -41c3 -4 5 -8 6 -8s3 4 6 8c7 12 30 32 45 41c55 31 117 23 159 -19c32 -32 44 -73 35 -123c-15 -87 -87 -175 -218 -269c-13 -10 -26 -18 -27 -18c-6 0 -70 47 -109 82c-91 80 -139 162 -139 237c0 60 43 113 100 126z
M105 398c-18 -3 -41 -16 -56 -31c-28 -28 -38 -64 -30 -109c14 -81 83 -166 204 -254l25 -18l23 16c90 65 157 135 186 195c14 29 23 64 23 89c0 44 -25 84 -63 102c-35 17 -68 16 -105 -2c-22 -11 -42 -31 -52 -51c-6 -12 -8 -14 -12 -14s-6 2 -12 14
c-22 45 -79 73 -131 63z" />
    <glyph glyph-name="error-bug-1" unicode="&#xf85b;" 
d="M225 404c8 3 14 3 27 3c15 -1 19 -1 30 -7c15 -8 26 -20 32 -35c4 -9 5 -11 11 -13c4 -1 12 -8 19 -14c15 -15 22 -29 23 -50c1 -15 2 -16 8 -20c4 -3 9 -8 12 -12s7 -8 9 -8c7 0 26 9 34 16c10 9 14 16 17 32c2 14 6 19 12 15c3 -2 4 -5 4 -16c-1 -29 -21 -51 -55 -61
l-8 -3v-31v-32h46c42 0 47 -1 49 -4s2 -5 0 -8s-7 -4 -48 -4h-46l-3 -22c-4 -30 -5 -28 7 -32c39 -13 66 -41 73 -76c4 -21 2 -32 -7 -30c-5 1 -6 5 -9 22c-5 33 -25 56 -61 68l-12 4s-4 -6 -7 -13c-17 -39 -54 -72 -95 -87c-35 -13 -46 -13 -80 1c-25 10 -40 20 -57 36
s-27 31 -36 50c-3 7 -7 13 -7 13s-5 -2 -11 -4c-38 -13 -58 -35 -63 -70c-3 -18 -6 -23 -13 -19c-8 5 -4 32 7 54s34 41 64 51c12 4 11 1 7 33l-3 21h-46c-41 0 -46 1 -48 4s-2 5 0 8s7 4 49 4h46v32v31l-9 3c-34 10 -53 32 -54 61c0 11 0 14 3 16c6 4 11 -1 13 -15
c3 -16 7 -23 17 -32c8 -7 27 -16 34 -16c2 0 6 4 9 8s8 9 12 12c7 4 6 5 7 20c2 28 20 54 43 64c5 2 9 6 9 7c0 4 8 17 14 24c7 9 20 17 31 21zM229 389c-10 -4 -23 -14 -28 -23l-3 -6h50c33 0 50 1 50 2c0 4 -17 20 -25 24c-11 5 -33 7 -44 3zM187 341
c-23 -7 -39 -27 -42 -52l-1 -10h104h104l-1 11c-3 24 -20 44 -43 51c-15 5 -106 5 -121 0zM143 261c-15 -5 -25 -16 -29 -31c-3 -10 -3 -79 0 -99c9 -62 44 -108 100 -129c8 -3 17 -6 20 -7l6 -1v135v135h-45c-33 0 -46 -1 -52 -3zM256 129c0 -74 1 -135 1 -135
c5 0 31 10 43 16c37 19 61 48 74 88c8 24 11 48 10 94c-1 35 -1 40 -5 47c-5 9 -11 15 -21 20c-6 3 -13 4 -55 5h-47v-135z" />
    <glyph glyph-name="briefcase-1" unicode="&#xf846;" horiz-adv-x="495" 
d="M213 413c12 4 58 4 71 0c20 -6 36 -20 45 -40c5 -10 5 -15 6 -32l1 -21h67l66 -1l7 -5c4 -3 10 -9 13 -13l6 -8v-96c0 -70 1 -96 -1 -98c-1 -2 -6 -3 -9 -3h-5v-62c0 -45 -1 -62 -3 -64c-3 -3 -456 -3 -459 0c-2 2 -2 19 -2 64v62h-6c-3 0 -7 1 -8 3c-2 2 -2 28 -2 98
l1 96l5 8c3 4 9 10 13 13c8 5 8 5 74 6h66l1 21c1 17 1 22 6 32c9 20 25 33 47 40zM213 397c-7 -2 -13 -7 -20 -14c-13 -13 -17 -24 -17 -47v-16h72h72v16c0 23 -4 34 -17 47c-14 14 -24 17 -56 17c-15 0 -28 -1 -34 -3zM31 302c-2 -1 -6 -4 -9 -7l-5 -5l-1 -89v-89h96h96
v14c0 8 1 15 2 16c3 3 72 3 75 0c1 -1 3 -8 3 -16v-14h96h96l-1 89v89l-7 6l-6 7h-216c-119 0 -217 0 -219 -1zM224 104v-24h24h24v24v24h-24h-24v-24zM32 40v-56h216h216v56v56h-88h-88v-14c0 -8 -2 -15 -3 -16c-3 -3 -72 -3 -75 0c-1 1 -2 8 -2 16v14h-88h-88v-56z" />
    <glyph glyph-name="money-box-1" unicode="&#xf878;" horiz-adv-x="487" 
d="M245 405c17 5 41 2 57 -8c11 -7 21 -19 27 -32c5 -10 6 -15 6 -29s-1 -18 -5 -28c-6 -13 -7 -12 11 -16c6 -1 23 -3 38 -3c31 -1 49 -4 67 -13c7 -3 12 -7 12 -9s-4 -8 -12 -16c-7 -7 -14 -15 -16 -19l-4 -7l5 -8c3 -5 9 -19 14 -30c7 -17 9 -20 15 -23c4 -2 9 -4 12 -4
c14 0 18 -12 12 -36c-5 -19 -11 -33 -20 -43c-7 -8 -24 -17 -32 -17c-3 0 -7 -2 -9 -4s-11 -10 -21 -18l-18 -14v-24c0 -16 0 -24 -2 -26s-12 -2 -33 -2h-31l-9 14l-10 14l-13 1c-7 1 -20 1 -29 1l-16 1l-1 -13c0 -7 -1 -14 -2 -15c-2 -2 -11 -3 -35 -3h-32l-17 16
c-40 37 -65 81 -73 130l-2 15l-9 1h-9v-8c-1 -18 -14 -31 -33 -33c-9 -1 -12 -1 -17 3c-7 6 -11 15 -11 27s8 21 21 25c9 2 10 3 6 6c-2 2 -9 4 -15 7s-10 6 -11 8c-2 4 2 10 6 11c5 1 28 -11 39 -21c10 -9 11 -9 22 -9h12l1 12c7 63 44 107 106 127c9 3 14 5 14 7
c0 1 -3 8 -5 15c-13 36 9 77 49 90zM245 389c-14 -4 -30 -21 -34 -35c-7 -22 -2 -41 14 -57c34 -34 89 -13 94 34c3 32 -24 62 -56 61c-5 0 -13 -1 -18 -3zM199 280c-40 -10 -72 -35 -88 -67c-11 -23 -14 -36 -14 -67c0 -22 1 -30 5 -43c10 -34 28 -65 56 -93l18 -18h24h24
v13c0 19 2 20 25 18c10 -1 28 -1 39 -2l20 -2l9 -13l9 -14h21h21v22v22l14 10c7 6 19 16 26 22c11 9 15 12 20 12c9 0 21 8 28 18c5 8 12 26 15 39c1 6 0 7 -9 9c-18 5 -21 7 -29 28c-4 10 -11 25 -15 33s-8 16 -8 18c0 4 9 20 17 30l7 9l-5 2c-14 5 -24 7 -51 7
c-20 0 -35 2 -48 5l-18 4l-9 -6c-5 -3 -12 -7 -18 -9s-10 -3 -9 -3c10 -1 37 -6 41 -8c6 -3 8 -7 6 -11c-2 -5 -8 -6 -21 -2c-18 5 -54 5 -74 0c-18 -4 -23 -4 -22 4c1 5 3 7 12 10c6 2 16 3 22 4c10 1 17 5 9 5c-4 0 -25 10 -32 15c-4 3 -6 2 -18 -1zM365 187
c7 7 16 7 22 0s7 -15 0 -22s-15 -6 -22 0s-7 15 0 22zM30 138c-11 -2 -14 -5 -14 -13c0 -10 4 -14 12 -12c11 2 19 12 17 22c-1 5 -2 6 -15 3z" />
    <glyph glyph-name="contact-1" unicode="&#xf84d;" horiz-adv-x="399" 
d="M34 438c2 2 41 2 174 2c170 -1 172 -1 177 -5c3 -2 8 -7 10 -10c4 -6 4 -6 4 -233s0 -227 -4 -233c-2 -3 -7 -8 -10 -10c-5 -4 -7 -4 -176 -5c-126 0 -172 0 -174 2s-3 8 -3 24v22h-14c-11 0 -15 1 -17 4s-2 5 0 8s6 4 17 4h14v56v56h-14c-11 0 -15 1 -17 4s-2 5 0 8
s6 4 17 4h14v56v56h-14c-11 0 -15 1 -17 4s-2 5 0 8s6 4 17 4h14v56v56h-14c-11 0 -15 1 -17 4s-2 5 0 8s6 4 17 4h14v22c0 14 0 22 2 24zM48 408v-16h6c13 -1 13 -15 0 -16h-6v-56v-56h6c3 0 8 -2 9 -4c3 -5 -1 -11 -9 -12h-6v-56v-56h6c13 -1 13 -15 0 -16h-6v-56v-56h6
c13 -1 13 -15 0 -16h-6v-16v-16h136h136v232v232h-136h-136v-16zM336 192v-232h19c18 0 19 0 24 5l5 5v222v222l-5 5c-5 5 -6 5 -24 5h-19v-232zM185 293c18 6 37 1 53 -15s19 -26 18 -59c-1 -27 -6 -39 -18 -53c-8 -9 -8 -17 -2 -21c2 -2 11 -5 19 -7c11 -3 16 -6 22 -12
c10 -11 15 -30 9 -36c-2 -2 -24 -2 -86 -2c-94 0 -89 -1 -87 14c3 19 14 31 35 37c20 6 25 12 16 23c-8 10 -14 20 -17 30c-4 14 -4 47 0 61c5 18 19 33 38 40zM184 274c-8 -4 -13 -8 -17 -15c-6 -9 -6 -11 -7 -31c-1 -28 2 -40 15 -54c9 -10 10 -10 9 -21
c-1 -13 -8 -21 -22 -26c-5 -2 -13 -4 -18 -6c-7 -3 -14 -11 -14 -16c0 -1 32 -1 70 -1c76 0 74 0 66 11c-3 4 -9 6 -19 9c-9 3 -17 7 -22 11c-6 6 -8 8 -9 18c-1 11 0 11 8 20c12 14 16 27 16 51c0 25 -3 32 -13 43c-13 14 -26 16 -43 7z" />
    <glyph glyph-name="paper-plane-1" unicode="&#xf87c;" horiz-adv-x="462" 
d="M228 319c124 53 227 96 229 96s4 -1 5 -3c2 -3 -68 -390 -72 -394c-1 -1 -4 -2 -6 -2s-20 10 -40 23s-44 28 -52 33l-16 10l-39 -56c-22 -31 -41 -57 -43 -58s-4 0 -6 1c-3 2 -3 12 -4 86l-1 84l-90 35c-50 20 -91 37 -92 39s-1 4 0 6s103 47 227 100zM222 299
c-183 -78 -193 -83 -187 -85c3 -1 40 -15 81 -31l74 -30l115 115c63 63 113 114 112 114s-89 -37 -195 -83zM323 264c-65 -65 -118 -118 -117 -119c5 -5 171 -106 172 -105c2 2 65 338 64 340c0 1 -54 -51 -119 -116zM200 65c0 -60 0 -64 3 -59c2 3 16 22 31 43s27 39 27 40
c1 2 -57 39 -60 39c-1 0 -1 -28 -1 -63z" />
    <glyph glyph-name="telephone-operator-1" unicode="&#xf8a0;" horiz-adv-x="488" 
d="M213 437c18 4 53 3 71 -3c55 -17 83 -57 83 -118v-20h18c20 0 27 -2 35 -10c10 -9 11 -15 11 -50c0 -34 -1 -40 -9 -49s-16 -11 -37 -11h-19l-5 -9c-8 -17 -26 -32 -46 -38c-3 -1 -4 -4 -4 -23s1 -22 5 -28c7 -10 26 -19 62 -28c41 -10 53 -16 74 -37
c17 -17 28 -36 33 -54c4 -17 27 -15 -242 -15c-213 0 -240 0 -242 3c-6 7 9 43 27 63c19 22 40 31 90 43c24 6 43 14 51 22c4 5 5 7 6 21l1 16l-10 11c-11 12 -26 33 -31 45l-3 8h-25c-27 0 -33 2 -42 11c-8 9 -10 15 -10 49c0 35 2 41 12 50c8 8 14 10 34 10h18v19
c0 37 10 66 30 87c17 18 35 29 64 35zM219 422c-34 -7 -60 -25 -73 -51c-6 -12 -11 -34 -11 -49v-10l12 1c26 3 47 13 75 36c20 16 39 25 57 26c24 2 45 -4 62 -17l6 -5l-1 6c-12 30 -35 50 -67 60c-13 4 -47 5 -60 3zM268 357c-12 -4 -23 -11 -41 -25
c-26 -21 -50 -31 -80 -35l-12 -1v-35c0 -38 3 -56 11 -78c9 -24 26 -47 44 -60c6 -4 11 -10 12 -11c2 -4 -3 -10 -7 -10c-3 0 -4 -1 -4 -9c0 -11 -4 -22 -11 -29c-4 -4 -4 -6 -3 -8c23 -29 65 -82 66 -82s53 64 65 79c4 5 4 6 -1 11c-8 8 -12 18 -12 32v12l-6 -2
c-3 -1 -13 -2 -22 -2c-17 1 -23 4 -31 15c-6 8 -6 26 0 34c9 12 14 14 35 14c22 0 27 -3 35 -15c2 -3 6 -6 7 -6c10 0 32 21 36 34c1 4 2 34 2 71c0 59 -1 64 -4 72c-6 12 -18 26 -30 31c-13 6 -37 7 -49 3zM77 274l-6 -6v-32v-32l6 -6c6 -6 6 -6 27 -6h21s-1 8 -3 17
s-3 28 -3 43v28h-18c-17 0 -18 0 -24 -6zM367 236v-44h19c17 0 18 0 24 6l5 6v32v32l-5 6c-6 6 -7 6 -24 6h-19v-44zM252 147c-3 -3 -5 -7 -5 -11s2 -8 5 -11c4 -4 7 -5 19 -5s15 1 19 5c3 3 5 7 5 11s-2 8 -5 11c-4 4 -7 5 -19 5s-15 -1 -19 -5zM147 44
c-7 -3 -24 -7 -38 -10c-30 -7 -39 -11 -55 -23c-14 -10 -24 -23 -31 -39l-6 -11l53 -1h107l54 1l-35 44c-19 24 -35 44 -35 44s-7 -2 -14 -5zM290 5l-36 -44l106 -1c58 0 106 0 107 1c3 3 -12 27 -25 40c-18 18 -31 25 -69 34c-16 4 -33 9 -38 11l-9 4l-36 -45z" />
    <glyph glyph-name="checkmark-1" unicode="&#xf8a7;" horiz-adv-x="272" 
d="M184 200c-42 -44 -79 -84 -82 -87l-6 -6l-42 43c-23 23 -44 42 -46 42c-4 0 -8 -4 -8 -8s92 -96 96 -96s176 180 176 184s-4 8 -8 8c-2 0 -38 -36 -80 -80z" />
    <glyph glyph-name="ecommerce-cart-1" unicode="&#xf859;" 
d="M2 406c4 4 89 3 92 -1c1 -1 9 -30 17 -64l15 -61h184c172 0 183 -1 185 -4s2 -5 0 -8s-13 -4 -183 -4h-182l22 -88l22 -88h128c118 0 127 -1 129 -4s2 -5 0 -8s-11 -4 -134 -4c-88 0 -132 1 -134 2c-1 1 -20 73 -42 160l-39 158h-39c-39 0 -43 1 -43 8c0 2 1 5 2 6z
M194 214c2 2 35 2 139 2c127 0 136 -1 138 -4s2 -5 0 -8s-11 -4 -138 -4c-98 0 -136 0 -138 2c-3 3 -4 9 -1 12zM210 150c2 2 31 2 119 2c108 0 116 -1 118 -4s2 -5 0 -8s-10 -4 -118 -4c-84 0 -116 0 -118 2c-3 3 -4 9 -1 12zM170 54c10 3 27 1 36 -5c12 -8 17 -17 17 -33
c0 -11 -1 -15 -6 -22c-9 -13 -17 -17 -33 -17c-11 0 -15 1 -22 6c-15 10 -21 27 -16 45c3 10 14 23 24 26zM378 54c10 3 27 1 36 -5c12 -8 17 -17 17 -33c0 -11 -1 -15 -6 -22c-9 -13 -17 -17 -33 -17c-11 0 -15 1 -22 6c-15 10 -21 27 -16 45c3 10 14 23 24 26zM175 38
c-9 -4 -14 -12 -14 -22c0 -8 1 -10 7 -16s7 -7 16 -7s10 1 16 7s7 7 7 16c0 8 -1 11 -6 16c-7 7 -19 9 -26 6zM383 38c-9 -4 -14 -12 -14 -22c0 -8 1 -10 7 -16s7 -7 16 -7s10 1 16 7s7 7 7 16c0 8 -1 11 -6 16c-7 7 -19 9 -26 6z" />
    <glyph glyph-name="speed-1" unicode="&#xf89b;" horiz-adv-x="494" 
d="M221 439c9 2 65 -1 81 -5c85 -19 154 -83 181 -165c9 -28 11 -43 11 -77c0 -45 -7 -76 -27 -114c-34 -66 -96 -113 -170 -129c-21 -5 -74 -5 -95 -1s-48 13 -66 22c-68 34 -116 97 -132 172c-5 24 -5 76 0 100c5 21 12 41 22 61c35 69 103 121 177 133c8 1 16 3 18 3z
M216 422c-95 -12 -175 -87 -196 -184c-5 -23 -5 -69 0 -92c19 -90 88 -161 177 -180c75 -16 152 5 207 57c50 47 74 101 74 169s-24 122 -74 169s-118 70 -188 61zM241 389c1 2 4 3 6 3c7 0 9 -5 8 -33c0 -24 -1 -28 -4 -30s-4 -2 -7 0s-4 6 -4 30c0 19 -1 28 1 30zM108 331
c3 3 8 5 11 5c8 0 158 -95 169 -107c21 -22 20 -54 -2 -76s-54 -23 -76 -2c-11 11 -105 159 -106 168c-1 5 0 8 4 12zM362 309c18 18 22 22 27 17s2 -9 -16 -27s-22 -22 -27 -17s-2 9 16 27zM123 314c2 -3 19 -30 38 -60c60 -95 57 -91 69 -97c13 -7 22 -6 35 1
c9 5 12 7 17 16c7 13 7 23 0 36c-4 8 -8 12 -19 19c-12 8 -132 83 -140 88c-3 2 -3 1 0 -3zM50 198c2 2 10 2 30 2c24 0 28 -1 30 -4s2 -5 0 -8s-6 -4 -30 -4c-28 -1 -33 1 -33 8c0 2 2 5 3 6zM386 198c-1 -1 -3 -4 -3 -6c0 -7 5 -9 33 -8c24 0 28 1 30 4s2 5 0 8
s-6 4 -30 4c-20 0 -28 0 -30 -2z" />
    <glyph glyph-name="processor-cpu-1" unicode="&#xf886;" 
d="M162 438c1 1 4 2 6 2c7 0 8 -4 8 -42v-38h32h32v38c0 34 1 39 4 41s4 2 7 0s5 -7 5 -41v-38h32h32v38c0 34 1 39 4 41s4 2 7 0s5 -7 5 -41v-38h33l33 -1l6 -7l7 -6l1 -33v-33h38c34 0 39 -1 41 -4s2 -5 0 -8s-7 -4 -41 -4h-38v-32v-32h38c34 0 39 -1 41 -4s2 -5 0 -8
s-7 -4 -41 -4h-38v-32v-32h38c34 0 39 -1 41 -4s2 -5 0 -8s-7 -4 -41 -4h-38v-33l-1 -33l-7 -6l-6 -7l-33 -1h-33v-38c0 -34 -2 -39 -5 -41s-4 -2 -7 0s-4 7 -4 41v38h-32h-32v-38c0 -34 -2 -39 -5 -41s-4 -2 -7 0s-4 7 -4 41v38h-32h-32v-38c0 -34 -2 -39 -5 -41
s-4 -2 -7 0s-4 7 -4 41v38h-33l-33 1l-6 7l-7 6l-1 33v33h-38c-34 0 -39 1 -41 4s-2 5 0 8s7 4 41 4h38v32v32h-38c-34 0 -39 1 -41 4s-2 5 0 8s7 4 41 4h38v32v32h-38c-34 0 -39 1 -41 4s-2 5 0 8s7 4 41 4h38v33l1 33l7 6l6 7l33 1h33v38c0 26 0 38 2 40zM98 342
c-3 -3 -3 -297 0 -300s297 -3 300 0s3 297 0 300s-297 3 -300 0zM159 294c2 1 43 1 91 1h88l6 -7l7 -6v-90v-90l-7 -6l-6 -7h-90h-90l-6 7l-7 6v90v90l5 5c3 3 7 6 9 7zM162 278c-3 -3 -3 -169 0 -172s169 -3 172 0s3 169 0 172s-169 3 -172 0z" />
    <glyph glyph-name="music-1" unicode="&#xf87a;" horiz-adv-x="383" 
d="M252 408c66 18 121 32 123 32s5 -1 6 -3c2 -2 2 -51 2 -188l-1 -186l-6 -12c-26 -57 -104 -57 -130 0c-5 10 -6 15 -6 29s1 19 6 29c7 15 20 29 36 36c12 5 13 6 48 7h37v94v94l-5 -1c-2 -1 -52 -13 -111 -29l-108 -29v-141l-1 -141l-6 -12c-26 -57 -104 -57 -130 0
c-5 10 -6 15 -6 29s1 19 6 29c7 15 20 29 36 36c12 5 13 6 48 7h37v142c0 111 0 142 2 144c1 1 57 16 123 34zM259 393c-59 -16 -108 -29 -111 -30c-4 -1 -5 -1 -5 -33c0 -30 0 -33 3 -32c2 1 52 14 111 30s108 29 109 30s1 15 1 32l-1 31zM292 133c-14 -4 -30 -21 -34 -35
c-7 -23 -2 -41 14 -57c23 -23 55 -23 78 0c15 15 17 23 17 63v32h-33c-23 0 -35 -1 -42 -3zM52 69c-14 -4 -30 -21 -34 -35c-7 -23 -2 -41 14 -57c23 -23 55 -23 78 0c15 15 17 23 17 63v32h-33c-23 0 -35 -1 -42 -3z" />
    <glyph glyph-name="money-1" unicode="&#xf877;" 
d="M140 438c37 6 78 -2 112 -21c20 -11 50 -41 61 -61c10 -18 18 -41 21 -61l2 -15l15 -2c38 -6 67 -20 95 -48c33 -33 50 -73 50 -118s-17 -85 -50 -118s-73 -50 -118 -50s-85 17 -118 50c-28 28 -42 57 -48 95l-2 15l-15 2c-38 6 -67 20 -95 48c-33 33 -50 73 -50 118
s17 85 50 118c26 26 56 42 90 48zM137 421c-74 -17 -125 -83 -120 -157c1 -23 5 -38 15 -59c19 -39 55 -68 98 -80c18 -5 58 -5 76 0c53 14 95 56 109 109c5 18 5 58 0 76c-14 52 -56 95 -108 109c-18 5 -53 6 -70 2zM162 374c1 1 4 2 6 2c5 0 8 -4 8 -14c0 -9 1 -10 8 -12
c17 -5 35 -30 30 -41c-4 -8 -12 -6 -15 5c-4 14 -16 22 -32 22c-29 0 -43 -34 -19 -48c4 -2 14 -6 24 -9c21 -6 33 -15 39 -27c8 -16 6 -33 -8 -47c-6 -6 -12 -9 -18 -11c-9 -2 -8 -3 -9 -13c-1 -19 -15 -19 -16 0c-1 10 -1 11 -8 13c-17 5 -30 23 -31 40c-1 16 12 17 15 1
c4 -19 15 -27 33 -27c32 0 42 37 14 50c-5 2 -14 6 -22 8s-18 7 -23 11c-21 16 -24 43 -5 62c6 6 12 9 18 11l9 3v9c0 5 1 11 2 12zM334 249c-6 -38 -20 -67 -48 -95s-57 -42 -95 -48l-15 -3l1 -9c8 -53 38 -95 84 -118c24 -12 38 -15 67 -15s43 3 67 15c39 19 69 56 80 98
c5 18 5 58 0 76c-16 60 -66 104 -129 113l-9 1zM349 181c3 3 10 1 14 -3c13 -14 15 -36 4 -34c-3 0 -6 4 -9 11c-3 6 -7 12 -8 13c-3 3 -3 11 -1 13zM298 124c-3 -6 4 -13 22 -18c8 -3 18 -6 23 -8c28 -13 18 -50 -14 -50c-18 0 -30 10 -33 28c-2 13 -15 13 -16 0
c-2 -15 15 -37 32 -42c7 -2 7 -3 8 -13c1 -19 15 -19 16 0c1 10 0 11 9 13c17 5 31 23 31 42c0 16 -14 33 -31 39c-38 14 -44 14 -47 9z" />
    <glyph glyph-name="pay-by-card-1" unicode="&#xf87f;" horiz-adv-x="335" 
d="M14 438c2 1 50 1 107 1h104l6 -7l7 -6l1 -68v-67l39 -39c41 -40 47 -48 53 -73c3 -10 5 -219 3 -228c-1 -5 -8 -8 -12 -5c-2 2 -3 17 -3 102c0 104 -1 122 -8 142c-4 10 -9 16 -38 45l-34 34v-49v-49l16 -16c13 -13 16 -17 16 -21c0 -3 -3 -6 -6 -6c-4 -1 -17 13 -71 66
c-74 73 -74 73 -92 68c-16 -4 -25 -21 -22 -38c1 -6 8 -13 40 -46l38 -39l-1 -21c-1 -19 0 -24 4 -36c6 -18 17 -35 33 -51c13 -13 15 -17 11 -21c-5 -5 -11 -2 -25 12c-17 17 -26 33 -33 52l-5 14h-24h-24l2 -12c3 -26 10 -43 30 -77c17 -28 20 -49 12 -54
c-5 -3 -9 1 -11 10c-2 11 -6 22 -20 45c-14 24 -23 48 -26 71l-3 17h-32l-33 1l-6 7l-7 6v162v162l5 5c3 3 7 6 9 7zM17 422c-3 -3 -3 -313 0 -316c2 -2 19 -2 63 -2h61v14v15l-35 35c-19 19 -36 38 -38 42c-5 9 -6 34 -1 43c13 24 42 33 66 21l10 -6v78v78h-62
c-45 0 -62 0 -64 -2zM159 337v-86l32 -32l32 -32v116c0 88 0 117 -2 119s-12 2 -32 2h-30v-87z" />
    <glyph glyph-name="people-1" unicode="&#xf880;" 
d="M58 422c10 3 27 1 35 -4c4 -2 9 -7 12 -12c5 -7 6 -11 6 -22s-1 -15 -6 -22c-9 -13 -17 -17 -33 -17c-11 0 -15 1 -22 6c-15 10 -21 27 -16 45c3 10 14 23 24 26zM410 422c10 3 27 1 35 -4c4 -2 9 -7 12 -12c5 -7 6 -11 6 -22s-1 -15 -6 -22c-9 -13 -17 -17 -33 -17
c-11 0 -15 1 -22 6c-15 10 -21 27 -16 45c3 10 14 23 24 26zM63 406c-9 -4 -14 -12 -14 -22c0 -8 1 -10 7 -16s7 -7 16 -7s10 1 16 7s7 7 7 16c0 8 -1 11 -6 16c-7 7 -19 9 -26 6zM415 406c-9 -4 -14 -12 -14 -22c0 -8 1 -10 7 -16s7 -7 16 -7s10 1 16 7s7 7 7 16
c0 8 -1 11 -6 16c-7 7 -19 9 -26 6zM7 321l7 7h58h58l7 -7l7 -7v-42v-42l-7 -7c-6 -6 -8 -7 -16 -7h-9v-41v-41l-7 -7l-7 -7h-26h-26l-7 7l-7 7v41v41h-9c-8 0 -10 1 -16 7l-7 7v42v42zM359 321l7 7h58h58l7 -7l7 -7v-42v-42l-7 -7c-6 -6 -8 -7 -16 -7h-9v-41v-41l-7 -7
l-7 -7h-26h-26l-7 7l-7 7v41v41h-9c-8 0 -10 1 -16 7l-7 7v42v42zM17 309c-1 -1 -1 -19 -1 -39l1 -37l13 -1c8 0 15 -2 16 -3c1 -2 2 -19 2 -47l1 -45h23h23l1 45c0 28 1 45 2 47c1 1 8 3 16 3l13 1v39v39l-55 1c-43 0 -54 -1 -55 -3zM232 309c19 6 38 1 51 -13
c18 -20 18 -44 0 -64c-19 -21 -48 -21 -68 -1c-14 14 -19 29 -13 48c3 10 20 27 30 30zM369 309c-1 -1 -1 -19 -1 -39l1 -37l13 -1c8 0 15 -2 16 -3c1 -2 2 -19 2 -47l1 -45h23h23l1 45c0 28 1 45 2 47c1 1 8 3 16 3l13 1v39v39l-55 1c-43 0 -54 -1 -55 -3zM235 293
c-20 -9 -25 -35 -9 -51c13 -13 31 -13 44 0c25 25 -3 65 -35 51zM167 193l7 7h74h74l7 -7l7 -7v-50v-50l-7 -7c-6 -6 -8 -7 -16 -7h-9v-49v-49l-7 -7l-7 -7h-42h-42l-7 7l-7 7v49v49h-9c-8 0 -10 1 -16 7l-7 7v50v50zM177 181c-1 -1 -1 -22 -1 -47l1 -45l13 -1
c8 0 15 -1 16 -3s2 -21 2 -55l1 -53h39h39l1 53c0 34 1 53 2 55s8 3 16 3l13 1v47v47l-71 1c-56 0 -70 -1 -71 -3z" />
    <glyph glyph-name="royal-1" unicode="&#xf88d;" horiz-adv-x="494" 
d="M231 373c19 6 38 1 51 -13c19 -21 18 -45 -3 -67l-12 -12l5 -16c12 -33 30 -65 47 -80c19 -17 40 -20 60 -10c13 6 30 23 41 39l8 12l-6 8c-5 7 -6 11 -6 22s2 14 6 21c8 12 17 18 33 18s26 -6 34 -18c4 -7 5 -10 5 -21s0 -15 -5 -22c-7 -10 -16 -15 -26 -17
c-5 -1 -7 -3 -8 -6c-1 -2 -10 -48 -21 -101s-20 -99 -21 -100c-3 -4 -328 -4 -331 0c-1 1 -11 47 -22 100s-19 99 -20 101c-1 3 -3 5 -8 6c-10 2 -21 10 -27 19c-7 11 -6 30 1 41c8 13 17 18 33 18c11 0 15 -1 22 -5c13 -8 17 -18 17 -34c0 -11 0 -15 -5 -21
c-5 -7 -5 -8 -2 -14c2 -3 11 -13 20 -23c31 -32 55 -38 81 -19c19 13 38 47 51 86l6 18l-8 5c-19 14 -25 34 -19 55c3 10 19 27 29 30zM234 357c-20 -9 -25 -35 -9 -51c13 -13 34 -13 46 1c22 26 -6 64 -37 50zM30 278c-9 -4 -14 -12 -14 -22c0 -8 1 -10 7 -16s7 -7 16 -7
s11 1 17 7s6 7 6 16c0 8 -1 11 -6 16c-7 7 -19 9 -26 6zM239 262c-15 -50 -43 -90 -71 -104c-14 -7 -36 -7 -51 0c-17 8 -38 26 -55 49c-2 3 -5 5 -5 3c0 -3 20 -106 23 -118l1 -4h166h166l1 4c2 9 23 115 23 117c0 1 -3 -4 -8 -10c-12 -17 -30 -33 -45 -40
c-18 -8 -36 -8 -53 0c-14 6 -33 23 -44 39s-24 45 -31 65c-7 22 -10 23 -17 -1zM446 278c-2 -1 -6 -4 -9 -7c-7 -8 -7 -23 0 -30c10 -11 26 -11 36 -1c5 5 5 8 5 16s-1 11 -6 16c-7 7 -19 9 -26 6zM85 70c0 -1 3 -12 5 -24l4 -22h153h154l4 22c2 12 4 23 4 24
c0 2 -34 2 -162 2s-162 0 -162 -2z" />
    <glyph glyph-name="lock-1" unicode="&#xf86f;" horiz-adv-x="335" 
d="M145 438c51 10 100 -16 122 -61c4 -9 10 -21 11 -28s2 -35 2 -62v-49l12 -13c49 -52 57 -132 21 -197c-11 -20 -41 -50 -61 -61c-53 -30 -115 -30 -168 0c-20 11 -51 41 -62 61c-36 65 -27 145 22 197l12 13v49c0 27 1 55 2 62c4 20 16 43 31 58s38 28 56 31zM144 421
c-34 -9 -60 -36 -69 -70c-2 -8 -3 -23 -3 -56v-45l7 5l8 4l1 44l1 44l7 15c9 18 20 30 39 39c12 6 16 6 33 6c18 0 20 0 34 -7c18 -9 29 -21 38 -40l7 -13l1 -44l1 -44l7 -4l8 -5v43c0 24 -1 47 -2 53c-10 53 -66 89 -118 75zM153 390c-18 -5 -35 -18 -43 -35
c-5 -9 -5 -13 -6 -49c-1 -37 -1 -38 3 -37c19 7 35 10 61 10s41 -3 60 -10c4 -1 4 0 3 37v39l-7 13c-11 21 -29 32 -52 33c-7 0 -16 0 -19 -1zM138 261c-75 -17 -127 -83 -122 -157c1 -23 6 -38 16 -59c19 -39 55 -68 98 -80c18 -5 58 -5 76 0c53 14 95 56 109 109
c5 18 5 58 0 76c-15 53 -56 95 -108 109c-17 5 -53 6 -69 2zM162 230c1 1 4 2 6 2c7 0 8 -4 8 -26v-22l11 -3c14 -4 19 -7 30 -18c9 -9 16 -21 20 -34l3 -9h22c19 0 22 -1 24 -4s2 -5 0 -8s-5 -4 -24 -4h-22l-3 -9c-4 -13 -11 -25 -20 -34c-11 -11 -17 -14 -30 -18l-11 -3
l-1 -22c0 -19 -1 -23 -4 -25s-4 -2 -7 0s-4 6 -4 25v22l-9 2c-27 7 -46 26 -53 53l-2 9h-23c-19 0 -22 1 -24 4s-2 5 0 8s5 4 24 4h23l2 9c7 27 26 46 53 53l9 2v22c0 14 0 22 2 24zM149 165c-14 -4 -30 -21 -34 -35c-7 -22 -3 -41 13 -57c18 -18 42 -21 65 -10
c34 17 41 61 14 88c-16 16 -36 21 -58 14z" />
    <glyph glyph-name="calculator-1" unicode="&#xf847;" horiz-adv-x="366" 
d="M14 438c2 1 79 1 171 1h168l6 -7l7 -6v-234v-234l-7 -6l-6 -7h-170h-170l-6 7l-7 6v234v234l5 5c3 3 7 6 9 7zM17 422c-3 -3 -3 -457 0 -460s329 -3 332 0s3 457 0 460s-329 3 -332 0zM49 390c3 3 265 3 268 0s3 -121 0 -124s-265 -3 -268 0s-3 121 0 124zM63 328v-48
h120h120v48v48h-120h-120v-48zM257 357c1 2 4 3 6 3c7 0 9 -5 8 -25c0 -16 -2 -20 -5 -22s-3 -2 -6 0s-5 6 -5 22c0 13 0 20 2 22zM89 213c13 7 30 -2 30 -17c0 -10 -10 -20 -20 -20c-20 0 -27 27 -10 37zM173 213c13 7 30 -2 30 -17c0 -10 -10 -20 -20 -20
c-20 0 -27 27 -10 37zM257 213c13 7 30 -2 30 -17c0 -10 -10 -20 -20 -20c-20 0 -27 27 -10 37zM96 198c-2 -3 2 -8 5 -5c2 2 1 7 -2 7c-1 0 -2 -1 -3 -2zM180 198c-2 -3 2 -8 5 -5c2 2 1 7 -2 7c-1 0 -2 -1 -3 -2zM264 198c-2 -3 2 -8 5 -5c2 2 1 7 -2 7c-1 0 -2 -1 -3 -2z
M89 125c13 7 30 -2 30 -17c0 -10 -10 -20 -20 -20c-20 0 -27 27 -10 37zM173 125c13 7 30 -2 30 -17c0 -10 -10 -20 -20 -20c-20 0 -27 27 -10 37zM257 125c13 7 30 -2 30 -17c0 -10 -10 -20 -20 -20c-20 0 -27 27 -10 37zM96 110c-2 -3 2 -8 5 -5c2 2 1 7 -2 7
c-1 0 -2 -1 -3 -2zM180 110c-2 -3 2 -8 5 -5c2 2 1 7 -2 7c-1 0 -2 -1 -3 -2zM264 110c-2 -3 2 -8 5 -5c2 2 1 7 -2 7c-1 0 -2 -1 -3 -2zM89 37c13 7 30 -2 30 -17c0 -10 -10 -20 -20 -20c-20 0 -27 27 -10 37zM173 37c13 7 30 -2 30 -17c0 -10 -10 -20 -20 -20
c-20 0 -27 27 -10 37zM257 37c13 7 30 -2 30 -17c0 -10 -10 -20 -20 -20c-20 0 -27 27 -10 37zM96 22c-2 -3 2 -8 5 -5c2 2 1 7 -2 7c-1 0 -2 -1 -3 -2zM180 22c-2 -3 2 -8 5 -5c2 2 1 7 -2 7c-1 0 -2 -1 -3 -2zM264 22c-2 -3 2 -8 5 -5c2 2 1 7 -2 7c-1 0 -2 -1 -3 -2z" />
    <glyph glyph-name="search-window-1" unicode="&#xf892;" 
d="M3 406c3 3 424 3 427 0c2 -2 2 -32 2 -122v-120l5 -10c15 -30 14 -65 -4 -91l-5 -8l34 -34c19 -19 34 -35 34 -37c0 -4 -4 -8 -8 -8c-2 0 -18 15 -37 34c-32 32 -35 35 -38 32c-7 -6 -25 -14 -39 -16c-18 -3 -35 -1 -53 8l-13 6h-152c-115 0 -151 0 -153 2
c-3 3 -3 361 0 364zM16 352v-40h200h200v40v40h-200h-200v-40zM45 363c7 7 16 7 22 0s7 -15 0 -22s-14 -6 -21 0s-8 15 -1 22zM101 363c7 7 16 7 22 0s7 -15 0 -22s-14 -6 -21 0s-8 15 -1 22zM157 363c7 7 16 7 22 0s7 -15 0 -22s-14 -6 -21 0s-8 15 -1 22zM16 176v-120h139
c132 0 138 1 135 4c-6 7 -14 24 -16 38c-10 58 42 110 100 100c14 -2 32 -10 39 -16c3 -3 3 1 3 56v58h-200h-200v-120zM341 181c-22 -7 -37 -20 -46 -40c-5 -10 -6 -15 -6 -29s1 -18 6 -29c7 -15 21 -29 37 -37c10 -4 14 -5 28 -5s19 1 29 6c16 7 30 21 37 36
c5 10 5 15 5 29c0 21 -6 35 -20 50c-17 18 -48 26 -70 19z" />
    <glyph glyph-name="handshake-1" unicode="&#xf863;" 
d="M295 390c3 1 17 2 30 2h24l73 -73c40 -40 74 -75 74 -77s-10 -13 -23 -26l-24 -24l5 -5c7 -7 12 -19 12 -28c0 -16 -15 -35 -29 -38l-7 -1l1 -14c1 -11 1 -14 -3 -22c-7 -13 -19 -21 -33 -21c-6 0 -14 1 -16 2c-4 1 -5 1 -6 -5c-4 -18 -19 -30 -40 -30h-12l-3 -9
c-7 -26 -41 -37 -62 -19l-7 5l-7 -5c-7 -6 -18 -10 -25 -10c-16 0 -34 13 -38 28l-2 9h-12c-20 1 -35 10 -40 28c-1 5 -3 7 -5 7c-7 -2 -26 -1 -31 2c-18 9 -27 32 -21 49c2 4 2 5 -2 5c-2 0 -8 2 -12 4c-24 13 -29 43 -10 63l5 5l-25 25c-13 13 -24 25 -24 27
c0 4 132 136 136 136c1 0 7 -4 12 -9c10 -9 20 -12 29 -10c3 1 10 6 17 12c21 18 41 20 63 6c7 -4 8 -5 11 -2c5 4 20 11 27 13zM293 373c-11 -4 -19 -11 -44 -35c-24 -23 -28 -31 -23 -42c4 -9 13 -16 21 -16c9 0 13 2 26 14c18 17 36 21 53 15c8 -3 19 -13 61 -55l51 -51
l20 20l19 19l-67 67l-67 67h-21c-13 0 -24 -1 -29 -3zM215 369c-3 -2 -9 -7 -14 -11c-11 -10 -20 -14 -31 -14c-9 0 -22 6 -30 13l-4 4l-59 -59l-58 -58l20 -20l21 -21l6 6c13 13 31 17 46 9c13 -7 21 -18 22 -31c1 -11 1 -11 7 -11c9 0 26 -9 31 -17c5 -7 9 -22 7 -26
c-1 -2 2 -2 9 -3c19 -2 33 -17 35 -37c1 -6 2 -10 3 -10s6 0 11 -1c20 -4 34 -28 29 -48c-1 -5 -3 -11 -4 -12c-5 -6 12 -15 23 -13c13 3 19 11 19 25c0 7 -2 10 -11 20c-11 12 -13 16 -9 20c5 5 11 2 26 -13c15 -14 16 -15 25 -15c8 0 10 1 16 7s7 8 7 16c0 9 0 10 -23 33
c-14 14 -23 25 -23 27c0 5 4 9 8 9c2 0 16 -14 32 -30l30 -29h10c9 0 11 0 17 7c7 8 9 19 4 27c-1 2 -15 17 -31 32s-28 29 -29 32c-1 5 2 11 7 11c2 0 15 -12 29 -26l26 -26h10c11 0 18 3 22 12c4 7 4 15 0 22c-4 8 -116 119 -124 123c-13 7 -24 3 -42 -14
c-14 -13 -23 -16 -37 -15c-24 2 -40 27 -34 50c2 7 7 13 22 28c21 21 21 24 6 28c-10 3 -16 3 -23 -1zM83 202c-9 -6 -32 -31 -34 -37c-1 -3 0 -9 1 -13c3 -10 12 -16 24 -16c8 0 9 1 26 18s18 17 18 27c0 11 -3 18 -12 22c-8 4 -16 4 -23 -1zM128 157
c-8 -6 -40 -37 -43 -43c-9 -17 7 -39 26 -35c8 2 48 41 51 50c3 8 0 18 -7 25c-6 6 -20 8 -27 3zM169 108c-12 -8 -29 -27 -30 -33c-2 -9 1 -17 7 -23c12 -12 24 -9 45 12c18 18 20 24 14 36c-7 14 -23 18 -36 8zM221 66c-7 -2 -22 -17 -26 -26c-8 -19 13 -38 32 -29
c9 4 22 21 24 29c1 7 -4 19 -10 23s-13 5 -20 3z" />
    <glyph glyph-name="microphone-1" unicode="&#xf876;" horiz-adv-x="336" 
d="M143 437c55 13 113 -22 126 -77c2 -10 3 -26 3 -74v-62h24h24v9c0 10 5 15 12 11c4 -2 4 -5 4 -38c0 -39 -2 -54 -9 -76c-8 -25 -20 -43 -41 -64c-28 -28 -57 -42 -95 -48l-15 -2v-35c0 -30 -2 -34 -5 -36s-4 -2 -7 0s-4 6 -4 36v35l-15 2c-38 6 -67 20 -95 48
c-21 21 -33 39 -41 64c-7 22 -9 37 -9 76c0 33 0 36 4 38c7 4 12 -1 12 -11v-9h24h24v62c0 50 0 65 3 75c10 37 40 67 76 76zM147 421c-25 -7 -46 -23 -57 -45c-3 -6 -6 -13 -6 -14s11 -2 28 -2c24 0 29 -1 31 -4s2 -5 0 -8s-7 -4 -33 -4h-30v-24v-24h30c26 0 31 -1 33 -4
s2 -5 0 -8s-7 -4 -33 -4h-30v-28v-28h88h88v28v28h-30c-26 0 -31 1 -33 4s-2 5 0 8s7 4 33 4h30v24v24h-30c-26 0 -31 1 -33 4s-2 5 0 8s7 4 31 4c28 1 28 1 27 5c-13 42 -61 68 -104 56zM17 182c1 -29 4 -42 15 -65c19 -39 55 -68 98 -80c18 -5 58 -5 76 0
c43 12 79 41 98 80c11 22 14 35 15 65l2 26h-25h-24v-18c0 -33 -10 -58 -31 -79c-33 -33 -81 -40 -122 -18c-7 4 -17 11 -24 18c-21 21 -31 46 -31 79v18h-24h-25zM80 191c0 -29 8 -51 26 -69c34 -34 90 -34 124 0c18 18 26 40 26 69v17h-88h-88v-17z" />
    <glyph glyph-name="router-1" unicode="&#xf88c;" horiz-adv-x="494" 
d="M65 405c3 4 9 4 12 0c2 -2 1 -7 -4 -22c-3 -10 -7 -24 -8 -31c-5 -29 -1 -67 9 -93c7 -18 8 -24 4 -27c-6 -5 -11 0 -16 13c-18 43 -20 98 -4 143c3 8 6 15 7 17zM417 405c3 4 9 4 12 0c4 -5 12 -30 15 -48c7 -39 1 -84 -15 -119c-3 -6 -9 -10 -13 -6c-4 3 -3 9 4 27
c10 26 14 64 9 93c-1 7 -5 21 -8 31c-5 15 -6 20 -4 22zM123 374c3 8 5 10 9 10c9 0 10 -4 4 -19c-11 -28 -11 -62 0 -90c6 -15 5 -20 -5 -19c-4 1 -5 3 -10 15c-13 34 -12 70 2 103zM355 381c1 2 5 3 8 3c4 -1 5 -3 10 -15c3 -8 7 -22 8 -32c3 -21 0 -45 -8 -66
c-5 -12 -6 -14 -10 -15c-9 -1 -11 5 -5 19c11 29 11 62 0 90c-4 11 -5 13 -3 16zM188 358c7 5 13 -3 9 -12c-7 -18 -7 -36 -1 -48c5 -10 2 -20 -7 -17c-12 4 -17 46 -8 66c2 5 6 10 7 11zM297 358c9 9 21 -11 21 -38c0 -26 -10 -46 -20 -38c-4 3 -4 6 1 21c5 14 4 29 -1 39
c-4 7 -4 13 -1 16zM241 326c1 1 4 2 6 2c8 0 8 -2 8 -82v-78h113l113 -1l6 -7l7 -6v-66v-66l-7 -6c-6 -6 -7 -7 -23 -8h-17v-14c0 -11 -2 -15 -5 -17s-3 -2 -6 0s-5 6 -5 17v14h-184h-184v-14c0 -11 -2 -15 -5 -17s-3 -2 -6 0s-5 6 -5 17v14h-17c-16 1 -17 2 -23 8l-7 6v66
v66l7 6l6 7l113 1h113v78c0 58 0 78 2 80zM17 150c-3 -3 -3 -121 0 -124s457 -3 460 0s3 121 0 124s-457 3 -460 0zM70 110c7 3 19 1 26 -6c5 -5 6 -8 6 -16c0 -9 -1 -10 -7 -16s-7 -7 -16 -7s-10 1 -16 7s-7 8 -7 16c0 10 5 18 14 22zM150 110c7 3 19 1 26 -6
c5 -5 6 -8 6 -16c0 -9 -1 -10 -7 -16s-7 -7 -16 -7s-10 1 -16 7s-7 8 -7 16c0 10 5 18 14 22zM230 110c7 3 19 1 26 -6c5 -5 6 -8 6 -16c0 -9 -1 -10 -7 -16s-7 -7 -16 -7s-10 1 -16 7s-7 8 -7 16c0 10 5 18 14 22zM73 93c-5 -6 2 -16 9 -12s5 15 -3 15c-2 0 -5 -1 -6 -3z
M153 93c-5 -6 2 -16 9 -12s5 15 -3 15c-2 0 -5 -1 -6 -3zM233 93c-5 -6 2 -16 9 -12s5 15 -3 15c-2 0 -5 -1 -6 -3z" />
    <glyph glyph-name="flame-1" unicode="&#xf85f;" horiz-adv-x="398" 
d="M238 432c5 8 11 10 15 5c2 -2 1 -5 -2 -17c-5 -20 -5 -63 0 -86c5 -22 16 -54 26 -76c8 -18 12 -22 12 -13c0 10 8 37 17 55c10 20 30 44 37 44s9 -5 6 -21c-3 -19 -2 -39 4 -53c2 -6 10 -20 17 -32c23 -39 28 -55 28 -95c0 -22 -2 -32 -5 -45
c-31 -125 -166 -189 -281 -134c-52 25 -92 73 -107 130c-4 17 -5 23 -5 51c0 37 3 56 14 86c8 21 17 40 29 55c13 16 19 13 21 -8c4 -40 20 -74 45 -94c6 -4 11 -7 11 -7s-1 8 -3 17c-6 25 -7 61 -3 82s9 33 20 51c12 19 23 30 57 58c30 25 39 34 47 47zM228 396
c-1 -1 -12 -10 -25 -21c-57 -47 -73 -74 -76 -122c-1 -23 1 -42 10 -73c6 -21 6 -23 3 -26s-4 -3 -12 0c-35 13 -65 51 -76 95l-4 17l-5 -7c-24 -39 -34 -104 -24 -150c18 -85 85 -143 171 -148c107 -6 198 84 192 192c-1 27 -8 45 -26 76s-23 45 -25 66l-1 16l-9 -16
c-11 -22 -17 -41 -18 -68c-1 -23 -3 -27 -9 -27c-5 0 -12 12 -27 43c-22 46 -34 86 -36 130c-1 15 -2 25 -3 23z" />
    <glyph glyph-name="remote-control-1" unicode="&#xf88a;" 
d="M3 438c3 3 488 3 491 0s3 -361 0 -364c-2 -2 -17 -2 -56 -2h-54v-57l-1 -57l-6 -6l-7 -7h-58h-58l-6 7l-7 6v57l-1 57h-117c-89 0 -118 0 -120 2c-3 3 -3 361 0 364zM16 256v-168h112h112l1 41v41l7 6l6 7h58h58l7 -7l6 -6l1 -41v-41h48h48v168v168h-232h-232v-168z
M289 310c36 6 70 -2 101 -23c14 -9 15 -11 12 -17s-8 -5 -22 5c-42 28 -94 27 -135 -1c-6 -4 -13 -8 -14 -9s-5 1 -7 3c-6 6 -3 9 13 20c14 10 37 19 52 22zM291 245c20 6 44 2 60 -9c10 -7 13 -11 10 -16c-3 -6 -8 -5 -17 2c-18 13 -46 13 -64 0c-9 -7 -14 -8 -17 -2
c-2 3 -2 5 0 8c3 6 17 14 28 17zM259 166c-3 -3 -3 -201 0 -204s104 -3 107 0s3 201 0 204s-104 3 -107 0zM301 123c-7 -7 -6 -16 1 -22s14 -7 21 0s6 15 0 22s-15 7 -22 0z" />
    <glyph glyph-name="cardboard-box-1" unicode="&#xf849;" 
d="M50 365l50 75h148h148l50 -75l50 -75v-171c0 -130 0 -171 -2 -173c-3 -3 -489 -3 -492 0c-2 2 -2 43 -2 173v171zM66 361c-23 -35 -42 -63 -42 -64s49 -1 108 -1h108v64v64h-66h-66zM256 360v-64h108c59 0 108 0 108 1s-19 29 -42 64l-42 63h-66h-66v-64zM16 120v-160
h232h232v160v160h-232h-232v-160zM66 86c3 3 169 3 172 0s3 -73 0 -76s-169 -3 -172 0s-3 73 0 76zM80 48v-24h72h72v24v24h-72h-72v-24z" />
    <glyph glyph-name="wireframe-1" unicode="&#xf8a5;" 
d="M3 390c3 3 488 3 491 0s3 -393 0 -396s-488 -3 -491 0s-3 393 0 396zM16 336v-40h232h232v40v40h-232h-232v-40zM16 144v-136h232h232v136v136h-232h-232v-136zM83 214c2 2 19 2 70 2c62 0 68 -1 70 -4s2 -5 0 -8s-8 -4 -70 -4c-48 0 -68 0 -70 2c-3 3 -3 9 0 12z
M275 214c3 3 136 3 139 0s3 -137 0 -140s-136 -3 -139 0s-3 137 0 140zM288 144v-56h56h56v56v56h-56h-56v-56zM83 150c2 2 19 2 70 2c62 0 68 -1 70 -4s2 -5 0 -8s-8 -4 -70 -4c-48 0 -68 0 -70 2c-3 3 -3 9 0 12zM83 86c-3 -3 -3 -9 0 -12c2 -2 22 -2 70 -2
c62 0 68 1 70 4s2 5 0 8s-8 4 -70 4c-51 0 -68 0 -70 -2z" />
    <glyph glyph-name="champion-1" unicode="&#xf84a;" horiz-adv-x="495" 
d="M114 438c3 3 264 3 267 0c1 -1 3 -8 3 -13c0 -9 0 -9 3 -8c46 18 93 0 105 -41c4 -12 4 -18 3 -33c-2 -37 -13 -61 -40 -88c-15 -15 -22 -20 -36 -27c-20 -10 -44 -19 -65 -22c-10 -2 -15 -4 -19 -8c-15 -14 -39 -24 -64 -28l-15 -2v-40v-40h65l65 -1l6 -7l7 -6v-58v-58
l-7 -6l-6 -7h-138h-138l-7 7l-6 6v58v58l6 6l7 7l65 1h65v40v40l-15 2c-25 4 -47 14 -64 28c-5 4 -10 6 -20 8c-53 9 -101 38 -122 74c-17 29 -24 70 -16 96c12 41 59 59 105 41c3 -1 4 -1 4 8c0 5 1 12 2 13zM128 358c1 -61 1 -68 5 -83c16 -59 57 -91 115 -91
c34 0 61 11 82 32c15 15 23 30 31 55c5 18 5 18 6 85l1 68h-120h-121zM57 406c-34 -9 -47 -37 -38 -81c8 -37 32 -67 69 -85c19 -9 50 -20 50 -17c0 1 -2 4 -4 8s-6 13 -9 20c-10 27 -12 35 -13 92l-1 54l-10 5c-10 5 -33 7 -44 4zM403 405c-5 -1 -11 -4 -14 -6l-5 -3
l-1 -54c-1 -61 -3 -73 -17 -102c-4 -8 -8 -15 -8 -16c-2 -3 31 7 50 16c37 18 61 48 69 85c8 38 -1 63 -26 76c-12 6 -34 8 -48 4zM114 70c-3 -3 -3 -105 0 -108s264 -3 267 0s3 105 0 108s-264 3 -267 0zM178 22c-3 -3 -3 -9 0 -12c2 -2 23 -2 71 -2c62 0 67 1 69 4
s2 5 0 8s-8 4 -70 4c-51 0 -68 0 -70 -2z" />
    <glyph glyph-name="pie-chart-1" unicode="&#xf881;" horiz-adv-x="495" 
d="M274 438c5 5 38 1 67 -7c42 -12 84 -41 111 -77c14 -19 31 -53 37 -76c6 -24 9 -55 5 -59c-2 -3 -16 -3 -110 -3c-81 0 -108 0 -110 2c-3 3 -3 217 0 220zM288 328v-96h96h96l-1 12c-4 33 -14 63 -32 90c-32 50 -87 82 -148 89l-11 1v-96zM185 374c18 3 33 3 36 0
c2 -2 3 -29 3 -107v-104l74 -74c84 -84 78 -76 60 -92c-62 -55 -157 -68 -233 -32c-47 22 -79 54 -102 100c-13 26 -19 44 -22 73c-4 40 3 78 22 117c13 26 25 44 44 62c32 30 75 51 118 57zM181 357c-49 -9 -94 -36 -123 -75c-56 -74 -56 -170 0 -244
c65 -86 190 -103 278 -38l16 12l-72 73l-72 72v102v101h-6c-3 0 -12 -1 -21 -3zM306 166c3 3 184 3 187 0c5 -5 1 -45 -8 -72c-9 -26 -28 -63 -37 -68c-3 -1 -6 0 -11 4c-17 13 -133 127 -133 130c0 2 1 5 2 6zM380 106c71 -68 64 -62 67 -57c13 17 29 62 32 91l1 12h-74
h-74l48 -46z" />
    <glyph glyph-name="shield-security-1" unicode="&#xf896;" horiz-adv-x="400" 
d="M184 428c7 7 14 12 15 12s10 -6 19 -14c45 -40 98 -61 157 -65c14 -1 21 -2 23 -4c3 -4 1 -70 -4 -104c-21 -138 -79 -239 -173 -298c-10 -6 -19 -11 -21 -11c-4 0 -28 14 -46 28c-92 69 -149 196 -154 345c-1 26 0 38 2 40s9 3 23 4c60 4 116 27 159 67zM189 411
c-24 -22 -69 -46 -102 -56c-17 -5 -53 -11 -65 -11h-6v-16c0 -51 12 -120 30 -172c21 -61 50 -109 92 -149c18 -17 56 -45 62 -45s43 28 61 45c73 70 117 179 122 307l1 30h-6c-12 0 -48 6 -66 11c-33 10 -71 30 -99 54c-7 6 -14 11 -14 11s-4 -4 -10 -9zM246 210l-54 -55
l-27 27c-15 15 -27 26 -29 26c-4 0 -8 -4 -8 -8s60 -64 64 -64s120 116 120 120s-4 8 -8 8c-2 0 -28 -24 -58 -54z" />
    <glyph glyph-name="safe-1" unicode="&#xf88f;" horiz-adv-x="495" 
d="M19 437c5 2 47 2 231 2c224 0 226 0 231 -4c3 -2 8 -7 10 -10c4 -5 4 -6 4 -217s0 -212 -4 -217c-9 -12 -13 -14 -37 -15h-22l-1 -14c0 -11 -1 -15 -4 -17s-4 -2 -7 0s-4 6 -4 17v14h-168h-168l-1 -14c0 -11 -1 -15 -4 -17s-4 -2 -7 0s-4 6 -4 17v14h-22
c-24 1 -28 3 -37 15c-4 5 -4 7 -5 212c0 113 0 208 1 212c1 8 10 18 18 22zM24 422c-2 -1 -5 -4 -6 -7c-3 -7 -3 -407 0 -414c1 -3 4 -6 7 -7c3 -2 68 -2 223 -2s219 0 222 2c3 1 6 4 7 7c3 7 3 407 0 414c-1 3 -4 6 -7 7c-7 3 -440 3 -446 0zM66 374c3 3 360 3 363 0
s3 -329 0 -332s-360 -3 -363 0c-2 2 -2 14 -2 40v38h-7c-3 0 -7 2 -8 4c-3 5 0 11 8 12h7v72v72h-7c-13 1 -13 15 0 16h7v38c0 26 0 38 2 40zM80 328v-32h6c13 -1 13 -15 0 -16h-6v-72v-72h6c13 -1 13 -15 0 -16h-6v-32v-32h168h168v152v152h-168h-168v-32zM242 310
c-38 -7 -73 -43 -81 -82l-2 -12h-14c-11 0 -14 -1 -16 -4s-2 -5 0 -8s7 -4 57 -4h55l3 -5c6 -10 21 -14 32 -8c21 12 12 45 -12 45c-8 0 -17 -5 -20 -11c-2 -5 -4 -5 -36 -5h-32l1 6c7 30 23 52 48 64c53 26 116 -7 125 -66c7 -45 -24 -88 -70 -98c-31 -6 -68 8 -86 33
c-8 12 -10 13 -15 13c-6 0 -8 -7 -4 -14c6 -11 27 -31 40 -38c43 -22 89 -14 122 19c41 41 41 105 0 146c-25 25 -60 36 -95 29z" />
    <glyph glyph-name="server-1" unicode="&#xf894;" horiz-adv-x="495" 
d="M61 437c5 2 39 2 189 2h183l7 -5c5 -4 12 -15 31 -55l24 -50v-185v-186l-6 -6l-7 -7h-234h-234l-6 7l-7 6v183l-1 184l23 50c13 28 26 52 28 55s7 6 10 7zM64 420c-4 -3 -36 -70 -36 -74c0 -1 100 -2 221 -2h221l-18 38c-10 21 -19 39 -21 40c-3 2 -43 2 -183 2
c-168 0 -180 -1 -184 -4zM18 326c-2 -2 -2 -17 -2 -56v-54h232h232v54c0 39 0 54 -2 56c-3 3 -457 3 -460 0zM71 294c7 3 19 1 26 -6c5 -5 6 -8 6 -16c0 -9 0 -10 -6 -16s-8 -7 -17 -7s-10 1 -16 7s-7 8 -7 16c0 10 5 18 14 22zM74 277c-5 -6 3 -16 10 -12s4 15 -4 15
c-2 0 -5 -1 -6 -3zM258 278c2 2 23 2 87 2c77 0 84 -1 86 -4s2 -5 0 -8s-9 -4 -86 -4c-60 0 -84 0 -86 2c-3 3 -4 9 -1 12zM16 144v-56h232h232v56v56h-232h-232v-56zM71 166c7 3 19 1 26 -6c5 -5 6 -8 6 -16c0 -9 0 -10 -6 -16s-8 -7 -17 -7s-10 1 -16 7s-7 8 -7 16
c0 10 5 18 14 22zM74 149c-5 -6 3 -16 10 -12s4 15 -4 15c-2 0 -5 -1 -6 -3zM258 150c2 2 23 2 87 2c77 0 84 -1 86 -4s2 -5 0 -8s-9 -4 -86 -4c-60 0 -84 0 -86 2c-3 3 -4 9 -1 12zM16 18c0 -39 0 -54 2 -56c3 -3 457 -3 460 0c2 2 2 17 2 56v54h-232h-232v-54zM71 38
c7 3 19 1 26 -6c5 -5 6 -8 6 -16c0 -9 0 -10 -6 -16s-8 -7 -17 -7s-10 1 -16 7s-7 8 -7 16c0 10 5 18 14 22zM74 21c-5 -6 3 -16 10 -12s4 15 -4 15c-2 0 -5 -1 -6 -3zM258 22c-3 -3 -2 -9 1 -12c2 -2 26 -2 86 -2c77 0 84 1 86 4s2 5 0 8s-9 4 -86 4c-64 0 -85 0 -87 -2z
" />
    <glyph glyph-name="appointment-1" unicode="&#xf843;" 
d="M211 437c47 7 98 0 142 -21c28 -13 48 -27 70 -49s36 -42 49 -70c45 -94 25 -206 -49 -280c-22 -22 -42 -36 -70 -49c-79 -38 -173 -30 -247 20c-20 14 -48 43 -62 63c-13 19 -28 51 -34 71c-25 89 -1 181 63 245c22 22 41 36 69 49c22 11 44 17 69 21zM216 422
c-32 -4 -79 -23 -105 -43c-54 -41 -87 -99 -94 -165l-2 -14h23c19 0 22 -1 24 -4s2 -5 0 -8s-5 -4 -24 -4h-23l2 -14c8 -77 54 -147 121 -182c28 -15 59 -24 88 -27l14 -1v22c0 19 1 23 4 25s4 2 7 0s4 -6 4 -25c1 -26 -2 -23 27 -19c74 11 138 57 172 123
c12 23 19 47 23 72c4 29 6 25 -20 26c-19 0 -22 1 -24 4s-2 5 0 8s6 4 25 4h22l-1 14c-3 29 -11 56 -24 82c-36 71 -106 119 -186 127l-13 1l-1 -22c0 -19 -1 -23 -4 -25s-4 -2 -7 0s-4 6 -4 25v22h-6c-3 0 -11 -1 -18 -2zM311 234c-34 -34 -63 -62 -64 -62s-20 15 -43 34
s-42 34 -44 34c-4 0 -8 -4 -8 -8s89 -79 95 -80c4 -1 137 131 137 136c0 4 -4 8 -8 8c-2 0 -31 -28 -65 -62z" />
    <glyph glyph-name="laptop-screen-1" unicode="&#xf86b;" 
d="M34 366c3 3 425 3 428 0c2 -2 2 -35 2 -139v-137l16 -24c15 -22 16 -25 16 -35c0 -6 -1 -12 -2 -13c-3 -3 -489 -3 -492 0c-1 1 -2 7 -2 13c0 10 1 13 16 35l16 24v137c0 104 0 137 2 139zM48 224v-128h200h200v128v128h-200h-200v-128zM30 59c-8 -12 -14 -22 -14 -24
c0 -3 25 -3 232 -3s232 0 232 3c0 2 -6 12 -14 24l-14 21h-204h-204l-14 -21z" />
    <glyph glyph-name="computer-network-1" unicode="&#xf84c;" 
d="M154 406c3 3 185 3 188 0c2 -2 2 -19 2 -67v-65l8 -16c6 -13 8 -19 8 -27c0 -6 -1 -12 -2 -13c-3 -3 -217 -3 -220 0c-1 1 -2 7 -2 13c0 8 2 14 8 27l8 16v65c0 48 0 65 2 67zM168 336v-56h80h80v56v56h-80h-80v-56zM158 251c-4 -7 -6 -14 -6 -16c0 -3 13 -3 96 -3
s96 0 96 3c0 2 -2 9 -6 16l-7 13h-83h-83zM18 166c3 3 185 3 188 0c2 -2 2 -19 2 -67v-65l8 -16c6 -13 8 -19 8 -27c0 -6 -1 -12 -2 -13c-3 -3 -217 -3 -220 0c-1 1 -2 7 -2 13c0 8 2 14 8 27l8 16v65c0 48 0 65 2 67zM290 166c3 3 185 3 188 0c2 -2 2 -19 2 -67v-65l8 -16
c6 -13 8 -19 8 -27c0 -6 -1 -12 -2 -13c-3 -3 -217 -3 -220 0c-1 1 -2 7 -2 13c0 8 2 14 8 27l8 16v65c0 48 0 65 2 67zM32 96v-56h80h80v56v56h-80h-80v-56zM304 96v-56h80h80v56v56h-80h-80v-56zM22 11c-4 -7 -6 -14 -6 -16c0 -3 13 -3 96 -3s96 0 96 3c0 2 -2 9 -6 16
l-7 13h-83h-83zM294 11c-4 -7 -6 -14 -6 -16c0 -3 13 -3 96 -3s96 0 96 3c0 2 -2 9 -6 16l-7 13h-83h-83l-7 -13z" />
    <glyph glyph-name="chats-1" unicode="&#xf84b;" 
d="M165 406c17 3 50 2 68 0c52 -7 94 -28 127 -63c27 -29 41 -64 40 -100l-1 -17l14 -5c48 -17 83 -61 83 -104c0 -25 -11 -53 -28 -72l-10 -11l11 -29c12 -30 13 -35 5 -37c-2 0 -21 8 -44 17l-41 17l-13 -2c-29 -5 -73 2 -100 16c-26 13 -48 35 -58 57l-5 10l-22 2
c-12 1 -27 2 -33 3c-10 2 -10 2 -71 -23c-34 -14 -63 -25 -64 -25c-4 0 -7 4 -7 8c0 2 9 22 20 44l20 41l-14 15c-55 59 -56 138 -2 195c32 34 75 56 125 63zM170 390c-50 -6 -99 -33 -125 -66c-17 -22 -29 -52 -29 -77c0 -16 5 -37 14 -55c6 -13 12 -21 26 -35
c10 -10 18 -19 18 -21s-7 -19 -16 -37s-16 -34 -16 -34s24 8 52 20l51 21l16 -2c26 -4 63 -3 86 2c55 11 103 45 123 86c18 37 18 72 1 107c-31 63 -116 102 -201 91zM392 201c-4 -16 -20 -39 -37 -56c-18 -18 -38 -32 -62 -42c-16 -7 -46 -15 -54 -15c-10 0 -10 -3 -3 -15
c24 -40 79 -63 136 -57l21 2l31 -13c17 -7 32 -12 32 -12s-4 9 -8 20s-8 22 -8 24s6 10 13 17c28 29 34 65 18 98c-9 18 -31 38 -51 48c-25 12 -25 12 -28 1z" />
    </font>
</defs>
</svg>
